<svg xmlns="http://www.w3.org/2000/svg" viewBox="0 0 86.71 80"><defs><style>.cls-1{fill:#beb4ef;}.cls-2{fill:#373f54;}</style></defs><g id="Layer_2" data-name="Layer 2"><g id="Layer_1-2" data-name="Layer 1"><circle class="cls-1" cx="40.83" cy="46.51" r="31.19"/><path class="cls-2" d="M40.22.12A40,40,0,1,0,83.33,40,40.11,40.11,0,0,0,40.22.12Zm6.36,75.62A35.88,35.88,0,1,1,79.06,43.3,35.92,35.92,0,0,1,46.58,75.74Z"/><path class="cls-2" d="M64.88,40h0a2.06,2.06,0,0,0,2.06,2.06h2.74l0,.33A26.16,26.16,0,0,1,63.55,57l-.21.25L61.48,55.4a2,2,0,0,0-2.91,0h0a2.06,2.06,0,0,0,0,2.92l1.84,1.84-.25.2a26.21,26.21,0,0,1-14.45,6l-.33,0V63.77a2.05,2.05,0,0,0-2.05-2.06h0a2.06,2.06,0,0,0-2.06,2.06v2.58l-.33,0a26.25,26.25,0,0,1-14.53-6l-.25-.22,1.77-1.77a2.06,2.06,0,0,0,0-2.91h0a2.06,2.06,0,0,0-2.92,0l-1.77,1.77L23,56.91a26.15,26.15,0,0,1-6-14.52l0-.33h2.58A2.06,2.06,0,0,0,21.61,40h0a2.06,2.06,0,0,0-2.06-2.06H17l0-.35A17.06,17.06,0,0,1,33.88,23a16.85,16.85,0,0,1,13.6,6.91l.21.29-7.28,3.67a6.78,6.78,0,1,0,8,10.66L68.92,23.37,67.9,22a30.5,30.5,0,0,0-55,15.7l0,.28h-.07V40a30.56,30.56,0,0,0,61.11,0V37.94H66.94A2.06,2.06,0,0,0,64.88,40ZM45.31,41.78a2.65,2.65,0,0,1-2,.88h-.12a2.66,2.66,0,0,1-1-5.07l12.4-6.24.17-.18.07.06,1.41-.71ZM26.54,19.59a26.32,26.32,0,0,1,36.23,2.6l.27.29L51.39,28.34l-.14-.22a21,21,0,0,0-24.42-8l-1.63.59Z"/><circle class="cls-1" cx="78.95" cy="73.22" r="2.66"/><circle class="cls-1" cx="5.34" cy="8.22" r="5.34"/><circle class="cls-1" cx="82.96" cy="11.97" r="3.75"/></g></g></svg>