<svg xmlns="http://www.w3.org/2000/svg" viewBox="0 0 81.82 80"><defs><style>.cls-1{fill:#a0e4d5;}.cls-2{fill:#373f54;}</style></defs><g id="Layer_2" data-name="Layer 2"><g id="Layer_1-2" data-name="Layer 1"><path class="cls-1" d="M72.38,33.3V47.79l-1-1L70.23,47.9a2.16,2.16,0,0,1-2.69.3,12.86,12.86,0,0,0-4.08-1.68,2.17,2.17,0,0,1-1.7-2.13V42.83H59.34v1.59a2.16,2.16,0,0,1-1.68,2.12,13,13,0,0,0-4,1.68,2.16,2.16,0,0,1-2.7-.29l-1.12-1.12-1.71,1.71,1.14,1.13a2.16,2.16,0,0,1,.3,2.69,13.22,13.22,0,0,0-1.65,4A2.16,2.16,0,0,1,45.78,58H44.19v2.41h1.59a2.17,2.17,0,0,1,2.13,1.7,12.53,12.53,0,0,0,.93,2.66H20.62a7.15,7.15,0,0,1-2.18-.34,7.21,7.21,0,0,1-5-6.88V33.3Z"/><path class="cls-1" d="M13.72,12.1H73.54a0,0,0,0,1,0,0V23.25a0,0,0,0,1,0,0H24.87A11.15,11.15,0,0,1,13.72,12.1v0a0,0,0,0,1,0,0Z"/><path class="cls-1" d="M70.85,59.24A10.09,10.09,0,0,1,69.2,64.8a10.24,10.24,0,1,1,1.65-5.56Z"/><path class="cls-2" d="M15.25,9.16a5.9,5.9,0,1,0,5.91,5.89A5.9,5.9,0,0,0,15.25,9.16Zm0,7.43a1.54,1.54,0,1,1,1.54-1.54A1.53,1.53,0,0,1,15.25,16.59Z"/><path class="cls-2" d="M61.57,9.16h-14a5.9,5.9,0,1,0,0,11.79h14a5.9,5.9,0,1,0,0-11.79Zm0,7.43h-14a1.54,1.54,0,1,1,0-3.07h14a1.54,1.54,0,1,1,0,3.07Z"/><path class="cls-2" d="M29,9.16a5.9,5.9,0,1,0,5.9,5.89A5.9,5.9,0,0,0,29,9.16Zm0,7.43a1.54,1.54,0,1,1,1.54-1.54A1.54,1.54,0,0,1,29,16.59Z"/><path class="cls-2" d="M26.55,35.35a2.21,2.21,0,0,0-1.65.26,2.16,2.16,0,0,0-1,1.36l-3.13,13.1A2.18,2.18,0,0,0,22.4,52.7a2.22,2.22,0,0,0,.51.06A2.18,2.18,0,0,0,25,51.09L28.16,38A2.18,2.18,0,0,0,26.55,35.35Z"/><path class="cls-2" d="M31.8,51a2.22,2.22,0,0,0,1.45.55,2.18,2.18,0,0,0,1.63-.73l4.43-5a2.8,2.8,0,0,0,0-3.7l-4.43-5a2.17,2.17,0,0,0-3.8,1.32,2.15,2.15,0,0,0,.55,1.58L35.12,44,31.63,48A2.19,2.19,0,0,0,31.8,51Z"/><path class="cls-2" d="M17.14,37a2.18,2.18,0,0,0-3.08.18l-4.42,5a2.79,2.79,0,0,0,0,3.7l4.43,5a2.19,2.19,0,0,0,3.08.18A2.18,2.18,0,0,0,17.32,48L13.83,44l3.49-3.92A2.18,2.18,0,0,0,17.14,37Z"/><path class="cls-2" d="M80.16,54.88a5,5,0,0,0-.5-.43,4.14,4.14,0,0,0-2.43-.78h-.14a17,17,0,0,0-.9-2.16l.11-.11A4.08,4.08,0,0,0,77.22,50a4.5,4.5,0,0,0,.3-1.55,4.08,4.08,0,0,0-1.22-2.93l-.64-.64V11.52c0-5-3.59-9.14-8-9.14H8c-4.42,0-8,4.1-8,9.14V55.66c0,5,3.59,9.14,8,9.14h9.27a2.13,2.13,0,0,0,1.16-.34,2.18,2.18,0,0,0-1.16-4H8c-2,0-3.65-2.19-3.65-4.78v-28h67V42.32a4.08,4.08,0,0,0-2.87,1.21l-.12.12a16.18,16.18,0,0,0-2.2-.91v-.13A4.15,4.15,0,0,0,62,38.47H59.12A4.15,4.15,0,0,0,55,42.61v.17a18.06,18.06,0,0,0-2.13.89l-.1-.09a4.14,4.14,0,0,0-5.86,0l-2,2a4.14,4.14,0,0,0,0,5.85l.13.13a16,16,0,0,0-.87,2.1H44a4.15,4.15,0,0,0-4.14,4.14v2.63H31.27a2.18,2.18,0,1,0,0,4.36H44.14A18,18,0,0,0,45,66.93L44.9,67a4.16,4.16,0,0,0,0,5.85l2,2a4.14,4.14,0,0,0,5.85,0l.12-.11a16.46,16.46,0,0,0,2.13.88v.18A4.15,4.15,0,0,0,59.17,80H62a4.15,4.15,0,0,0,4.14-4.14v-.17a19.09,19.09,0,0,0,2.15-.89l.11.11a4.1,4.1,0,0,0,2.93,1.21,4.15,4.15,0,0,0,2.93-1.21l2-2A4.07,4.07,0,0,0,77.51,70a4.46,4.46,0,0,0-.12-1A4.06,4.06,0,0,0,76.3,67l-.11-.11a16.46,16.46,0,0,0,.88-2.13h.16a4.13,4.13,0,0,0,4.14-4.13V57.81A4.11,4.11,0,0,0,80.16,54.88ZM4.36,23.25V11.52C4.36,8.93,6,6.74,8,6.74H67.66c2,0,3.65,2.19,3.65,4.78V23.25ZM77,60.44H75.43a2.18,2.18,0,0,0-2.13,1.7,13.08,13.08,0,0,1-.92,2.66,13.41,13.41,0,0,1-.74,1.34,2.18,2.18,0,0,0,.3,2.71L73.06,70l-1.7,1.7-1.13-1.12a2.18,2.18,0,0,0-2.7-.3,12.72,12.72,0,0,1-4,1.66A2.18,2.18,0,0,0,61.81,74v1.6H59.39V74a2.17,2.17,0,0,0-1.69-2.06,12.84,12.84,0,0,1-3.51-1.36l-.51-.3a2.16,2.16,0,0,0-2.7.3l-1.12,1.12L48.15,70l1.12-1.12a2.17,2.17,0,0,0,.31-2.71,11.67,11.67,0,0,1-.74-1.34,12.53,12.53,0,0,1-.93-2.66,2.17,2.17,0,0,0-2.13-1.7H44.19V58h1.59a2.16,2.16,0,0,0,2.12-1.69,13.22,13.22,0,0,1,1.65-4,2.16,2.16,0,0,0-.3-2.69l-1.14-1.13,1.71-1.71,1.12,1.12a2.16,2.16,0,0,0,2.7.29A13.27,13.27,0,0,1,56.15,47a13.72,13.72,0,0,1,1.51-.45,2.18,2.18,0,0,0,1.68-2.12V42.83h2.42v1.68a2.18,2.18,0,0,0,1.7,2,12.86,12.86,0,0,1,4.08,1.68,2.16,2.16,0,0,0,2.69-.3l1.13-1.13,1.7,1.71-.68.69-.44.43a2.17,2.17,0,0,0-.3,2.7,14.63,14.63,0,0,1,.74,1.34,13.25,13.25,0,0,1,.93,2.7A2.17,2.17,0,0,0,75.44,58H77Z"/><path class="cls-1" d="M75.44,58a2.17,2.17,0,0,1-2.13-1.69,13.25,13.25,0,0,0-.93-2.7,14.63,14.63,0,0,0-.74-1.34,2.17,2.17,0,0,1,.3-2.7l.44-.43.68-.69-1.7-1.71L70.23,47.9a2.16,2.16,0,0,1-2.69.3,12.86,12.86,0,0,0-4.08-1.68,2.18,2.18,0,0,1-1.7-2,14.5,14.5,0,0,0-2.62.82,2.16,2.16,0,0,1-1.48,1.21,13.72,13.72,0,0,0-1.51.45,15.44,15.44,0,0,0-2,23.56,12.84,12.84,0,0,0,3.51,1.36A2.17,2.17,0,0,1,59.39,74a16.13,16.13,0,0,0,2.42.73V74a2.18,2.18,0,0,1,1.69-2.13,12.72,12.72,0,0,0,4-1.66,2.18,2.18,0,0,1,2.7.3l1.13,1.12,1.7-1.7-1.12-1.12a2.18,2.18,0,0,1-.3-2.71,13.41,13.41,0,0,0,.74-1.34,13.08,13.08,0,0,0,.92-2.66,2.18,2.18,0,0,1,2.13-1.7H77V58ZM69.2,64.8a10.24,10.24,0,1,1,1.65-5.56A10.09,10.09,0,0,1,69.2,64.8Z"/><path class="cls-2" d="M60.6,49A10.25,10.25,0,1,0,69.2,64.8a10.09,10.09,0,0,0,1.65-5.56A10.26,10.26,0,0,0,60.6,49ZM62.51,64.8a5.86,5.86,0,0,1-3.82,0,5.89,5.89,0,1,1,3.82,0Z"/><path class="cls-2" d="M24.32,60.44h0a2.18,2.18,0,0,0,0,4.36h0a2.18,2.18,0,0,0,0-4.36Z"/><circle class="cls-1" cx="32.03" cy="72.59" r="3.05"/><circle class="cls-1" cx="25.1" cy="73.84" r="1.8"/><circle class="cls-1" cx="1.39" cy="68.15" r="1.39"/><circle class="cls-1" cx="78.65" cy="3.17" r="3.17"/></g></g></svg>