<svg xmlns="http://www.w3.org/2000/svg" viewBox="0 0 81.43 80"><defs><style>.cls-1{fill:#fce6b1;}.cls-2{fill:#12a8e3;}.cls-3{fill:#373f54;}</style></defs><g id="Layer_2" data-name="Layer 2"><g id="Layer_1-2" data-name="Layer 1"><rect class="cls-1" x="8.07" y="51.93" width="9.66" height="12.4"/><path class="cls-1" d="M66.29,2.06V13.72H59.46l-.58-.58V1.32h7.27A2,2,0,0,1,66.29,2.06Z"/><rect class="cls-1" x="32.22" y="42.28" width="9.66" height="22.06" transform="translate(74.1 106.61) rotate(180)"/><path class="cls-2" d="M64.87,44v-.42L66,43l1.21,3-.32,0A2.06,2.06,0,0,1,64.87,44Z"/><path class="cls-1" d="M75.86,74.42a2.06,2.06,0,0,1-1,2.66l-1.62.81L70.53,79,65.36,66.6,59.81,53.23l-2.69-6.47L61.46,45l9.18,9.18,5.69,13.71H73Z"/><path class="cls-3" d="M18.27,43.24H2.06A2.07,2.07,0,0,0,0,45.31V64.23a2.06,2.06,0,0,0,2.06,2.06H18.27a2.06,2.06,0,0,0,2.07-2.06V45.31A2.07,2.07,0,0,0,18.27,43.24ZM16.22,62.17H4.12V47.37h12.1Z"/><path class="cls-3" d="M42.61,32.43H26.39a2.06,2.06,0,0,0-2.06,2.06V64.23a2.06,2.06,0,0,0,2.06,2.06H42.61a2.05,2.05,0,0,0,2-2.06V34.49A2.06,2.06,0,0,0,42.61,32.43ZM40.54,62.17H28.45V36.56H40.54Z"/><path class="cls-3" d="M40.58,69.7a2.06,2.06,0,1,0,2.06,2.06A2.06,2.06,0,0,0,40.58,69.7Z"/><path class="cls-3" d="M35.17,69.69H29.76a2.07,2.07,0,0,0,0,4.13h5.41a2.07,2.07,0,0,0,0-4.13Z"/><path class="cls-3" d="M69,23.68V44a2.07,2.07,0,0,1-1.75,2l-.32,0A2.06,2.06,0,0,1,64.87,44V25.74H52.78V64.23a2.07,2.07,0,0,1-4.13,0V23.68a2.07,2.07,0,0,1,2.06-2.06H66.93A2.07,2.07,0,0,1,69,23.68Z"/><path class="cls-3" d="M66.15,1.32A2,2,0,0,0,64.23,0H50.71a2.06,2.06,0,0,0-1.45,3.52l5.3,5.3L39.05,24.33H23.68a2.11,2.11,0,0,0-1.46.6L12,35.14H4.76a2.06,2.06,0,0,0,0,4.12h8.11a2.09,2.09,0,0,0,1.46-.6L24.54,28.45H39.9a2.11,2.11,0,0,0,1.46-.6L57.47,11.73l5.3,5.3a2.06,2.06,0,0,0,3.52-1.45V2.06A2,2,0,0,0,66.15,1.32Zm-7.27,6L55.69,4.12h6.48V10.6Z"/><path class="cls-3" d="M80.83,64.32,70.64,54.13,61.46,45,59.2,42.69a2.06,2.06,0,0,0-3.51,1.46V75.24A2.06,2.06,0,0,0,57,77.14a2,2,0,0,0,2.24-.45l4.63-4.6,2.83,6.66a2.06,2.06,0,0,0,2.82,1l3.79-1.89,1.62-.81a2.06,2.06,0,0,0,1-2.66L73,67.84h6.33a2.07,2.07,0,0,0,1.46-3.52Zm-10.91-.61a2.07,2.07,0,0,0-1.73.93,2.11,2.11,0,0,0-.18,2l3.29,7.67-1.7.85-3.17-7.44a2,2,0,0,0-1.07-1.07,1.62,1.62,0,0,0-.44-.14,1.72,1.72,0,0,0-.39,0,2.1,2.1,0,0,0-1.46.6l-3.26,3.26V49.13L74.39,63.71Z"/><circle class="cls-1" cx="6.12" cy="28.57" r="4.24"/><circle class="cls-1" cx="71.32" cy="17.54" r="1.88"/><circle class="cls-1" cx="33.59" cy="9.61" r="1.86"/></g></g></svg>