<svg xmlns="http://www.w3.org/2000/svg" viewBox="0 0 70.2 80.5"><defs><style>.cls-1{fill:#3fd8cd;}.cls-2{fill:#373f54;}</style></defs><g id="Layer_2" data-name="Layer 2"><g id="Layer_1-2" data-name="Layer 1"><path class="cls-1" d="M58.81,63.11A124.07,124.07,0,0,1,36.08,78.68l-7.15-2.81a17.4,17.4,0,0,1-4.12-4.75c-2.89-4.43-6.55-12.5-8.36-26.39-.31-2.25-.54-4.64-.74-7.2q-.35-4.7-.4-10.12s15.33-3,19.41-7.24a38.29,38.29,0,0,0,10.67,7.4c1.17.59,2.42,1.15,3.78,1.68L31.79,46.63a2,2,0,0,1-2.73,0l-7.25-7.26a1.89,1.89,0,0,0-1.32-.54,1.85,1.85,0,0,0-1.32.54,1.87,1.87,0,0,0,0,2.63l10,9.94a1.88,1.88,0,0,0,2.61,0L52.48,31.19a2,2,0,0,0,.43-.63c1.19.36,2.42.7,3.73,1a55.56,55.56,0,0,0,9.69,1.33S68.89,54,58.81,63.11Z"/><path class="cls-2" d="M68.76,13.82A132.9,132.9,0,0,1,36.81.27a1.91,1.91,0,0,0-2,0,129,129,0,0,1-32,13.55,2,2,0,0,0-1.43,1.87V32.88A49.67,49.67,0,0,0,16.56,69.2C24,76.48,32.66,80.5,35.83,80.5s11.84-4,19.27-11.3A49.71,49.71,0,0,0,70.2,32.88V15.69A2,2,0,0,0,68.76,13.82ZM19.26,66.44A46,46,0,0,1,5.33,32.88V17.16a132.48,132.48,0,0,0,30.5-13,136.88,136.88,0,0,0,30.5,13V32.88A46,46,0,0,1,52.39,66.44c-7.21,7.06-14.87,10.2-16.56,10.2-1.25,0-5.81-1.73-11-5.52A49,49,0,0,1,19.26,66.44Z"/><path class="cls-2" d="M10.06,29.11A1.94,1.94,0,0,0,12,27.17V22.09c2.71-.88,5.42-1.86,8.06-2.9a1.93,1.93,0,0,0,1.06-1,1.9,1.9,0,0,0,0-1.48,1.92,1.92,0,0,0-2.51-1.09c-3,1.18-6.08,2.27-9.15,3.23a1.94,1.94,0,0,0-1.36,1.85v6.49A1.94,1.94,0,0,0,10.06,29.11Z"/><path class="cls-2" d="M24.11,17.35a2,2,0,0,0,.81-.18,2,2,0,0,0,1-1.07,1.92,1.92,0,0,0,0-1.47,2,2,0,0,0-2.58-1,1.86,1.86,0,0,0-1,1.06,1.9,1.9,0,0,0,0,1.48A1.93,1.93,0,0,0,24.11,17.35Z"/><path class="cls-2" d="M56,54.31a1.93,1.93,0,0,0-2.68.56,40.61,40.61,0,0,1-4.8,6,44,44,0,0,1-4.8,4.27,1.93,1.93,0,0,0,1.17,3.47,1.9,1.9,0,0,0,1.17-.4,46.1,46.1,0,0,0,5.23-4.65A44.85,44.85,0,0,0,56.58,57a1.9,1.9,0,0,0,.27-1.45A1.88,1.88,0,0,0,56,54.31Z"/><path class="cls-2" d="M39.85,67.76l-.09.06a1.94,1.94,0,0,0-.71,2.64,1.95,1.95,0,0,0,2.65.7l.11-.06a1.94,1.94,0,1,0-2-3.34Z"/><path class="cls-2" d="M55.21,25.83a5.73,5.73,0,0,0-8.09,0l-16.7,16.7-5.88-5.89A5.73,5.73,0,0,0,20.49,35a5.66,5.66,0,0,0-4,1.68,5.55,5.55,0,0,0-.74.89,5.72,5.72,0,0,0,.74,7.2l9.94,9.94a5.62,5.62,0,0,0,4,1.67,5.69,5.69,0,0,0,4-1.67L55.21,33.93a5.66,5.66,0,0,0,1.43-2.38A5.75,5.75,0,0,0,55.21,25.83Zm-2.73,5.36L31.73,51.94a1.88,1.88,0,0,1-2.61,0L19.17,42a1.87,1.87,0,0,1,0-2.63,1.85,1.85,0,0,1,1.32-.54,1.89,1.89,0,0,1,1.32.54l7.25,7.26a2,2,0,0,0,2.73,0L49.85,28.57a1.87,1.87,0,0,1,3.06,2A2,2,0,0,1,52.48,31.19Z"/><circle class="cls-1" cx="5.83" cy="7.53" r="4.3"/><circle class="cls-1" cx="17.74" cy="4.3" r="0.89"/><circle class="cls-1" cx="6.78" cy="72.57" r="6.78"/></g></g></svg>