<svg xmlns="http://www.w3.org/2000/svg" viewBox="0 0 70 80"><defs><style>.cls-1{fill:#ff837d;}.cls-2{fill:#373f54;}</style></defs><g id="Layer_2" data-name="Layer 2"><g id="Layer_1-2" data-name="Layer 1"><path class="cls-1" d="M67.92,63.27c-1.39-10.12-6.83-28.08-6.83-28.08l-8.48-2.4L48.44,38.1l-.38,2,6.2-.13a18.82,18.82,0,0,0-7.59,1.9L44.8,58a5.25,5.25,0,0,1-5.21,4.65H16.31l1,9.1,35.92-.25L56.58,50.6l1.34,6.09,3.8,15.18S69.31,73.39,67.92,63.27Z"/><path class="cls-1" d="M43.78,21.94c-.61-4.2-12.41-1.33-12.41-1.33S30.45,30.43,35.29,33,44.39,26.13,43.78,21.94Z"/><path class="cls-1" d="M47.05,21.16s5.56,6.32-3.67,16.56c0,0-.38,3.92,3.54,1.52s9-15.43,7.08-19.6S43.31,1.3,35.25,3.38c0,0-10,9.93-10.21,16.38C25,19.76,40.09,15.59,47.05,21.16Z"/><path class="cls-2" d="M69.83,64.27,64.08,38a7.61,7.61,0,0,0-6.28-5.83l-3.68-.53a22.25,22.25,0,0,0,1.37-7.54C55.45,12.69,43.39,0,35.23,0c-3.92,0-9,3-13.17,7.88C17.64,13,15.1,19,15.11,24.21a22.39,22.39,0,0,0,1.36,7.42l-3.69.53A7.62,7.62,0,0,0,6.49,38L.75,64.28A7.52,7.52,0,0,0,6.5,73.22a7.85,7.85,0,0,0,1.6.18H9.94a3.67,3.67,0,0,0-.12.94v1.33A4.34,4.34,0,0,0,14.16,80H56.43a4.33,4.33,0,0,0,4.33-4.33V74.34a3.67,3.67,0,0,0-.12-.94h1.85A7.54,7.54,0,0,0,70,65.87,7.25,7.25,0,0,0,69.83,64.27ZM13.21,74.34a.94.94,0,0,1,.95-.94H56.43a.94.94,0,0,1,.94.94v1.33a1,1,0,0,1-.94,1H14.16a1,1,0,0,1-.95-1ZM35.29,33c-5,0-7.37-6-8.5-11.06a22.58,22.58,0,0,1,8.51-1.4,23.75,23.75,0,0,1,8.44,1.36l0,0C42.64,27.07,40.25,33,35.29,33ZM23.88,24.25c2.12,8,6.05,12.16,11.41,12.16s9.3-4.21,11.42-12.18a2.13,2.13,0,0,1,.1.57c0,8.77-5.94,13.51-11.52,13.51s-11.52-4.74-11.52-13.5A2.14,2.14,0,0,1,23.88,24.25ZM46.11,38.31H44.4c3.74-3.12,5.79-7.87,5.79-13.51,0-5.27-7.48-7.63-14.9-7.63s-14.9,2.36-14.9,7.63c0,5.63,2.05,10.39,5.79,13.51H24.49a21,21,0,0,1-6-14.11c0-4.39,2.28-9.66,6.13-14.11h0C28.15,6,32.32,3.38,35.25,3.38,41.12,3.38,52.07,14,52.1,24.09A21,21,0,0,1,46.11,38.31ZM17.77,70,14.54,44.24a2.27,2.27,0,0,1,2-2.53l.28,0h37A2.27,2.27,0,0,1,56.05,44a2.53,2.53,0,0,1,0,.28L52.82,70Zm-1-31.7h0a5.61,5.61,0,0,0-5.61,6.36L14.35,70H8.1A4.13,4.13,0,0,1,4,65.88a3.71,3.71,0,0,1,.1-.88L9.8,38.73a4.19,4.19,0,0,1,3.46-3.22l4.63-.66a26.08,26.08,0,0,0,2.18,3.46Zm42.59,6.36a5.65,5.65,0,0,0-4.9-6.32,5.53,5.53,0,0,0-.71,0H50.53a27.15,27.15,0,0,0,2.18-3.46l4.61.66a4.18,4.18,0,0,1,3.46,3.21L66.53,65a4.16,4.16,0,0,1-3.17,4.92,4.28,4.28,0,0,1-.87.09H56.23Z"/><path class="cls-2" d="M35.29,48.88a7,7,0,1,0,0,13.95h0a7,7,0,1,0,0-13.95Zm0,3.38a3.59,3.59,0,1,1-3.59,3.59A3.59,3.59,0,0,1,35.29,52.26Z"/><circle class="cls-1" cx="6.91" cy="23.9" r="3.71"/><circle class="cls-1" cx="61.63" cy="28.03" r="2.78"/><circle class="cls-1" cx="1.94" cy="34.1" r="1.94"/></g></g></svg>