<svg xmlns="http://www.w3.org/2000/svg" viewBox="0 0 80 63.63"><defs><style>.cls-1{fill:#12a8e3;}.cls-2{fill:#373f54;}</style></defs><g id="Layer_2" data-name="Layer 2"><g id="Layer_1-2" data-name="Layer 1"><path class="cls-1" d="M77.31,16.67V50.81h-47v-21a5.2,5.2,0,0,0-5.2-5.2H21.6V16.67Z"/><path class="cls-1" d="M9.39,35.51H25a0,0,0,0,1,0,0V59.73a0,0,0,0,1,0,0h0A15.65,15.65,0,0,1,9.39,44.08V35.51a0,0,0,0,1,0,0Z"/><circle class="cls-2" cx="44.69" cy="44.87" r="2.13"/><circle class="cls-2" cx="15.01" cy="54.8" r="2.13"/><path class="cls-2" d="M74.38,0H15A5.5,5.5,0,0,0,9.39,5.62V23.08a2,2,0,0,0,2.13,2.13,2,2,0,0,0,2.13-2.13V5.62A1.26,1.26,0,0,1,15,4.26H74.38a1.26,1.26,0,0,1,1.36,1.36V47.53a1.26,1.26,0,0,1-1.36,1.36H32.47a2.13,2.13,0,0,0,0,4.26h3.11V58a1.26,1.26,0,0,1-1.36,1.36H32.47a2.13,2.13,0,1,0,0,4.26H56.92a2.13,2.13,0,0,0,0-4.26H55.17A1.26,1.26,0,0,1,53.81,58V53.15H74.38A5.5,5.5,0,0,0,80,47.53V5.62A5.5,5.5,0,0,0,74.38,0ZM49.76,59.37H39.63A4.57,4.57,0,0,0,39.84,58V53.15h9.71V58A4.57,4.57,0,0,0,49.76,59.37Z"/><path class="cls-2" d="M73,38.45a2,2,0,0,0-2.13-2.13H32.47a2.13,2.13,0,0,0,0,4.26H70.89A2,2,0,0,0,73,38.45Z"/><path class="cls-2" d="M22,27.94H8A5.5,5.5,0,0,0,2.4,33.56V58A5.5,5.5,0,0,0,8,63.63H22A5.5,5.5,0,0,0,27.62,58V33.56A5.5,5.5,0,0,0,22,27.94ZM6.66,33.56A1.27,1.27,0,0,1,8,32.2H22a1.27,1.27,0,0,1,1.37,1.36V58A1.27,1.27,0,0,1,22,59.37H8A1.27,1.27,0,0,1,6.66,58Z"/><circle class="cls-1" cx="65.08" cy="60.63" r="2.09"/><circle class="cls-1" cx="69.23" cy="59.79" r="0.84"/><circle class="cls-1" cx="5.33" cy="24.82" r="1.25"/><circle class="cls-1" cx="3.46" cy="18.9" r="3.46"/></g></g></svg>