<svg xmlns="http://www.w3.org/2000/svg" viewBox="0 0 85.65 80"><defs><style>.cls-1{fill:#98f49f;}.cls-2{fill:#ffd45e;}.cls-3{fill:#373f54;}</style></defs><g id="Layer_2" data-name="Layer 2"><g id="Layer_1-2" data-name="Layer 1"><circle class="cls-1" cx="56.76" cy="57.49" r="19.55"/><rect class="cls-1" x="7.22" y="8.02" width="43.92" height="5.25" rx="2.63"/><rect class="cls-1" x="25.72" y="19.08" width="43.92" height="5.25" rx="2.63"/><path class="cls-2" d="M58.8,34.84a2.49,2.49,0,0,1-1,.22H55V35a1.86,1.86,0,0,1,1.86-1.86H57A1.86,1.86,0,0,1,58.8,34.84Z"/><path class="cls-1" d="M60.13,31.36a23,23,0,0,0-5.59-.69,22.65,22.65,0,0,0-13.43,4.39H19a2.48,2.48,0,0,1-1.37-.41,2.55,2.55,0,0,1-1.18-2.15v-.14A2.55,2.55,0,0,1,19,29.8H57.78A2.55,2.55,0,0,1,60.13,31.36Z"/><path class="cls-1" d="M35.49,41a21.37,21.37,0,0,0-2.56,5.26H19a2.45,2.45,0,0,1-1.46-.47,2.51,2.51,0,0,1-1.09-2.09v-.14A2.55,2.55,0,0,1,19,41Z"/><path class="cls-2" d="M39.84,45.67c-.09.18-.18.36-.26.55H35.51a22.52,22.52,0,0,1,1-2.3,1.86,1.86,0,1,1,3.29,1.75Z"/><path class="cls-2" d="M59.93,45a2.56,2.56,0,0,1-2.15,1.18h-9.4a6.64,6.64,0,0,1,4.29-3.42v-.55A1.83,1.83,0,0,1,53.19,41h2.69a1.87,1.87,0,0,1,.52,1.29v.55A6.81,6.81,0,0,1,59.93,45Z"/><path class="cls-1" d="M31.73,53.47a22,22,0,0,0,.35,3.91H19a2.58,2.58,0,0,1-1.55-.52,2.55,2.55,0,0,1-1-2v-.14A2.55,2.55,0,0,1,19,52.12H31.78C31.75,52.57,31.73,53,31.73,53.47Z"/><path class="cls-2" d="M38.38,57.38H34.55a21.15,21.15,0,0,1-.37-3.91c0-.45,0-.9,0-1.35H38a12.2,12.2,0,0,0-.06,1.35A16.47,16.47,0,0,0,38.38,57.38Z"/><path class="cls-2" d="M51.41,57.38H47.8A1.85,1.85,0,0,1,49.6,56,1.88,1.88,0,0,1,51.41,57.38Z"/><path class="cls-2" d="M60.33,54.68v.14a2.55,2.55,0,0,1-2.55,2.56h-.23a3,3,0,0,0-3-2.14,6.88,6.88,0,0,1-5.85-3.12h8.74a6.67,6.67,0,0,1,2.89,2.42A.66.66,0,0,1,60.33,54.68Z"/><path class="cls-1" d="M34,63.28a23,23,0,0,0,3.49,5.26H19A2.54,2.54,0,0,1,16.42,66v-.14A2.56,2.56,0,0,1,19,63.28Z"/><path class="cls-2" d="M47.34,68.48l.11.06h-6.6a20.27,20.27,0,0,1-3.46-4.08c-.25-.39-.48-.78-.69-1.18h4.43A16.55,16.55,0,0,0,47.34,68.48Z"/><path class="cls-2" d="M58,63.3a6.85,6.85,0,0,1-1.61.64v.42a1.87,1.87,0,0,1-3.73,0v-.42A6.55,6.55,0,0,1,51,63.28h6.75A.93.93,0,0,1,58,63.3Z"/><path class="cls-3" d="M60.32,54.54a5.93,5.93,0,0,1,1,3.31A6.24,6.24,0,0,1,58,63.3a6.85,6.85,0,0,1-1.61.64v.42a1.87,1.87,0,0,1-3.73,0v-.42A6.55,6.55,0,0,1,51,63.28a6.21,6.21,0,0,1-3.29-5.43A1.86,1.86,0,0,1,49.6,56a1.88,1.88,0,0,1,1.81,1.39,1.84,1.84,0,0,1,.06.47,3.1,3.1,0,0,0,6.13,0,1.83,1.83,0,0,0-.05-.47,3,3,0,0,0-3-2.14,6.88,6.88,0,0,1-5.85-3.12,5.93,5.93,0,0,1-.31-5.9,6.64,6.64,0,0,1,4.29-3.42v-.55a1.86,1.86,0,0,1,1.87-1.86,1.86,1.86,0,0,1,1.86,1.86v.55A6.81,6.81,0,0,1,59.93,45a6.09,6.09,0,0,1,1.4,3.86,1.87,1.87,0,0,1-3.73,0,3.1,3.1,0,0,0-6.13,0,2.87,2.87,0,0,0,3.07,2.62,7.15,7.15,0,0,1,2.89.6A6.67,6.67,0,0,1,60.32,54.54Z"/><path class="cls-3" d="M71.69,42.49a20.43,20.43,0,0,0-8.34-7.38,1.86,1.86,0,0,0-2.48.87,1.86,1.86,0,0,0,.87,2.49,16.65,16.65,0,0,1,7.5,22.81,1.85,1.85,0,0,0-.14,1.42A1.84,1.84,0,0,0,70.88,64a1.87,1.87,0,0,0,1.65-1,20.42,20.42,0,0,0-.84-20.54Z"/><path class="cls-3" d="M58.81,35A1.87,1.87,0,0,1,57,36.84h-.1A1.87,1.87,0,0,1,55,35.06V35a1.86,1.86,0,0,1,1.86-1.86H57a1.86,1.86,0,0,1,1.84,1.73A.71.71,0,0,1,58.81,35Z"/><path class="cls-3" d="M48.22,71a1.88,1.88,0,0,1-1.68,1,2,2,0,0,1-.82-.18,20.49,20.49,0,0,1-4.87-3.3,20.27,20.27,0,0,1-3.46-4.08c-.25-.39-.48-.78-.69-1.18a20.5,20.5,0,0,1-2.15-5.9,21.15,21.15,0,0,1-.37-3.91c0-.45,0-.9,0-1.35a20.49,20.49,0,0,1,1.29-5.9,22.52,22.52,0,0,1,1-2.3,1.86,1.86,0,1,1,3.29,1.75c-.09.18-.18.36-.26.55A16.21,16.21,0,0,0,38,52.12a12.2,12.2,0,0,0-.06,1.35,16.47,16.47,0,0,0,.47,3.91,16.83,16.83,0,0,0,9,11.1l.11.06A1.87,1.87,0,0,1,48.22,71Z"/><path class="cls-3" d="M52.23,70.11h-.09a1.87,1.87,0,0,0,0,3.73h.11a1.87,1.87,0,0,0,0-3.73Z"/><path class="cls-3" d="M61.77,28a5.94,5.94,0,0,0-.33-.67h3.43a7.42,7.42,0,0,0,0-14.83H53.1a7.2,7.2,0,0,0,1-3.68,7.43,7.43,0,0,0-7.41-7.42H8.91a7.42,7.42,0,1,0,0,14.83H20.67a7.42,7.42,0,0,0,0,7.37H17.23A7.42,7.42,0,0,0,9.82,31a7.34,7.34,0,0,0,2.51,5.54,7.39,7.39,0,0,0,0,11.1,7.4,7.4,0,0,0,0,11.11,7.4,7.4,0,0,0,4.9,13h18A26.52,26.52,0,1,0,61.77,28Zm3.1-11.77a3.69,3.69,0,0,1,3.67,3.36c0,.1,0,.22,0,.33a3.69,3.69,0,0,1-3.69,3.68H27.1a3.38,3.38,0,0,1-.72-.07h0a3.69,3.69,0,0,1,.73-7.3ZM5.22,8.77A3.7,3.7,0,0,1,8.91,5.08H46.68a3.69,3.69,0,0,1,3.68,3.66v0a3.68,3.68,0,0,1-3.68,3.68H8.91a3.77,3.77,0,0,1-1.17-.19A3.67,3.67,0,0,1,5.22,8.77Zm12,18.51H50.31a26.33,26.33,0,0,0-14.44,7.37H17.23a3.69,3.69,0,0,1,0-7.37Zm0,11.1H32.74A25.56,25.56,0,0,0,31.15,41a26.74,26.74,0,0,0-2,4.79H17.23a3.69,3.69,0,0,1,0-7.37Zm0,11.1H28.31c-.12.88-.22,1.76-.26,2.64,0,.45,0,.9,0,1.35a25.84,25.84,0,0,0,.22,3.39h-11a3.69,3.69,0,0,1,0-7.38Zm0,18.47a3.69,3.69,0,0,1,0-7.37H29a25.24,25.24,0,0,0,.92,2.7A25.54,25.54,0,0,0,32.32,68Zm37.31,8.33a22.76,22.76,0,0,1-17.1-7.74A23,23,0,0,1,34,63.28a22.44,22.44,0,0,1-1.87-5.9,22,22,0,0,1-.35-3.91c0-.45,0-.9.05-1.35a21.82,21.82,0,0,1,1.15-5.9A21.37,21.37,0,0,1,35.49,41a22.84,22.84,0,0,1,19-10.29,22.81,22.81,0,1,1,0,45.61Z"/><circle class="cls-1" cx="80.54" cy="25.83" r="5.11"/><circle class="cls-1" cx="1.6" cy="22.62" r="1.6"/><circle class="cls-1" cx="59.38" cy="3.21" r="3.21"/></g></g></svg>