<svg xmlns="http://www.w3.org/2000/svg" viewBox="0 0 88.86 80"><defs><style>.cls-1{fill:#f4a196;}.cls-2{fill:#373f54;}</style></defs><g id="Layer_2" data-name="Layer 2"><g id="Layer_1-2" data-name="Layer 1"><path class="cls-1" d="M26.24,20.87h42.2a0,0,0,0,1,0,0V77.18a0,0,0,0,1,0,0H18.9a0,0,0,0,1,0,0v-49A7.34,7.34,0,0,1,26.24,20.87Z"/><path class="cls-2" d="M65.09,4.38h-8.8A12.63,12.63,0,0,0,46.73,0H34.07a12.64,12.64,0,0,0-9.56,4.38h-8.8a7.05,7.05,0,0,0-7,7.05V73a7,7,0,0,0,7,7H65.09a7,7,0,0,0,7-7V11.43A7,7,0,0,0,65.09,4.38Zm-31,.32H46.73a8,8,0,0,1,7.62,5.63H26.46A8,8,0,0,1,34.07,4.7ZM67.43,73a2.35,2.35,0,0,1-2.34,2.35H15.71A2.35,2.35,0,0,1,13.37,73V11.43a2.35,2.35,0,0,1,2.34-2.35h6.23a12.58,12.58,0,0,0-.52,3.6A2.35,2.35,0,0,0,23.76,15H57a2.35,2.35,0,0,0,2.35-2.35,12.59,12.59,0,0,0-.53-3.6h6.23a2.35,2.35,0,0,1,2.34,2.35Z"/><path class="cls-2" d="M28.85,46.66,25.4,50.12l-.84-.85a2.35,2.35,0,0,0-3.32,3.32l2.5,2.51a2.34,2.34,0,0,0,3.32,0L32.16,50a2.34,2.34,0,1,0-3.31-3.32Z"/><path class="cls-2" d="M57.74,48.53H38.84a2.35,2.35,0,0,0,0,4.7h18.9a2.35,2.35,0,0,0,0-4.7Z"/><path class="cls-2" d="M28.85,60.13,25.4,63.58l-.84-.84a2.35,2.35,0,0,0-3.32,3.32l2.5,2.5a2.34,2.34,0,0,0,3.32,0l5.1-5.11a2.34,2.34,0,0,0-3.31-3.32Z"/><path class="cls-2" d="M57.74,62H38.84a2.35,2.35,0,1,0,0,4.69h18.9a2.35,2.35,0,1,0,0-4.69Z"/><path class="cls-2" d="M44.87,37.67l7.25-7.26v.28a2.35,2.35,0,0,0,4.69,0c0-6.65,0-6,0-6.29a2.35,2.35,0,0,0-2.32-2H48.53a2.35,2.35,0,1,0,0,4.69h.28l-5.6,5.61-7.09-7.11a2.33,2.33,0,0,0-3.31,0L24.37,34a2.35,2.35,0,1,0,3.31,3.33l6.78-6.8,7.1,7.11A2.33,2.33,0,0,0,44.87,37.67Z"/><circle class="cls-1" cx="83.5" cy="22.02" r="5.36"/><circle class="cls-1" cx="3.06" cy="29.17" r="3.06"/></g></g></svg>