<svg width="87" height="80" viewBox="0 0 87 80" fill="none" xmlns="http://www.w3.org/2000/svg">
<g clip-path="url(#clip0)">
<path d="M24.5054 32.8854C24.5054 33.9555 24.621 34.8231 24.8235 35.4594C25.0549 36.0957 25.3441 36.7898 25.749 37.5417C25.8936 37.7731 25.9514 38.0044 25.9514 38.2069C25.9514 38.4961 25.7779 38.7853 25.4019 39.0745L23.5799 40.2892C23.3196 40.4627 23.0593 40.5495 22.8279 40.5495C22.5387 40.5495 22.2495 40.4049 21.9603 40.1446C21.5554 39.7108 21.2084 39.2481 20.9192 38.7853C20.6299 38.2937 20.3407 37.7442 20.0226 37.079C17.7668 39.7397 14.9325 41.0701 11.5198 41.0701C9.09045 41.0701 7.15275 40.376 5.73561 38.9878C4.31848 37.5996 3.59546 35.7486 3.59546 33.4349C3.59546 30.9766 4.46309 28.9811 6.22727 27.4772C7.99146 25.9733 10.3341 25.2214 13.3129 25.2214C14.2962 25.2214 15.3085 25.3081 16.3786 25.4527C17.4486 25.5973 18.5476 25.8287 19.7045 26.089V23.9778C19.7045 21.7798 19.2417 20.2469 18.3452 19.3504C17.4197 18.4538 15.858 18.02 13.6311 18.02C12.6188 18.02 11.5777 18.1357 10.5076 18.396C9.43751 18.6563 8.39635 18.9744 7.38411 19.3793C6.92138 19.5818 6.57432 19.6974 6.37188 19.7553C6.16943 19.8131 6.02483 19.842 5.90914 19.842C5.50425 19.842 5.3018 19.5528 5.3018 18.9455V17.5284C5.3018 17.0656 5.35964 16.7186 5.50425 16.5161C5.64885 16.3137 5.90914 16.1112 6.31404 15.9088C7.32627 15.3882 8.54095 14.9544 9.95808 14.6073C11.3752 14.2314 12.8791 14.0578 14.4698 14.0578C17.9114 14.0578 20.4275 14.8387 22.0471 16.4004C23.6377 17.9622 24.4475 20.3337 24.4475 23.515V32.8854H24.5054ZM12.7634 37.2814C13.7178 37.2814 14.7011 37.1079 15.7423 36.7608C16.7834 36.4138 17.7089 35.7775 18.4898 34.9099C18.9525 34.3604 19.2996 33.7531 19.4731 33.059C19.6466 32.3648 19.7623 31.5261 19.7623 30.5428V29.3281C18.9236 29.1257 18.0271 28.9522 17.1016 28.8365C16.1761 28.7208 15.2796 28.663 14.383 28.663C12.4453 28.663 11.0282 29.0389 10.0738 29.8198C9.11937 30.6007 8.65664 31.6997 8.65664 33.1457C8.65664 34.505 9.00369 35.5172 9.72672 36.2113C10.4208 36.9344 11.4331 37.2814 12.7634 37.2814ZM35.987 40.4049C35.4664 40.4049 35.1194 40.3181 34.888 40.1157C34.6566 39.9422 34.4542 39.5373 34.2807 38.9878L27.4842 16.6318C27.3107 16.0534 27.2239 15.6774 27.2239 15.475C27.2239 15.0122 27.4553 14.7519 27.918 14.7519H30.7523C31.3018 14.7519 31.6778 14.8387 31.8802 15.0412C32.1116 15.2147 32.2851 15.6196 32.4586 16.1691L37.3174 35.3148L41.8291 16.1691C41.9737 15.5907 42.1472 15.2147 42.3786 15.0412C42.6099 14.8676 43.0148 14.7519 43.5354 14.7519H45.8491C46.3986 14.7519 46.7745 14.8387 47.0059 15.0412C47.2373 15.2147 47.4397 15.6196 47.5554 16.1691L52.1249 35.5462L57.1283 16.1691C57.3018 15.5907 57.5042 15.2147 57.7067 15.0412C57.9381 14.8676 58.314 14.7519 58.8346 14.7519H61.5243C61.987 14.7519 62.2473 14.9833 62.2473 15.475C62.2473 15.6196 62.2184 15.7642 62.1895 15.9377C62.1605 16.1112 62.1027 16.3426 61.987 16.6607L55.017 39.0167C54.8435 39.5951 54.6411 39.9711 54.4097 40.1446C54.1783 40.3181 53.8024 40.4338 53.3107 40.4338H50.8235C50.274 40.4338 49.898 40.347 49.6666 40.1446C49.4353 39.9422 49.2328 39.5662 49.1172 38.9878L44.6344 20.3337L40.1806 38.9588C40.036 39.5373 39.8624 39.9132 39.6311 40.1157C39.3997 40.3181 38.9948 40.4049 38.4742 40.4049H35.987ZM73.1505 41.1858C71.6466 41.1858 70.1427 41.0122 68.6967 40.6652C67.2506 40.3181 66.1227 39.9422 65.3708 39.5083C64.908 39.2481 64.5899 38.9588 64.4742 38.6986C64.3585 38.4383 64.3007 38.1491 64.3007 37.8888V36.4138C64.3007 35.8064 64.5321 35.5172 64.9659 35.5172C65.1394 35.5172 65.3129 35.5462 65.4865 35.604C65.66 35.6618 65.9203 35.7775 66.2095 35.8932C67.1928 36.327 68.2629 36.6741 69.3908 36.9054C70.5476 37.1368 71.6756 37.2525 72.8324 37.2525C74.6544 37.2525 76.0716 36.9344 77.0549 36.2981C78.0382 35.6618 78.5588 34.7364 78.5588 33.5506C78.5588 32.7408 78.2985 32.0756 77.7779 31.5261C77.2573 30.9766 76.274 30.485 74.8569 30.0222L70.6633 28.7208C68.5521 28.0556 66.9903 27.0723 66.036 25.7709C65.0816 24.4983 64.5899 23.0812 64.5899 21.5773C64.5899 20.3626 64.8502 19.2925 65.3708 18.3671C65.8913 17.4416 66.5855 16.6318 67.4531 15.9956C68.3207 15.3304 69.304 14.8387 70.4609 14.4917C71.6177 14.1446 72.8324 14 74.1049 14C74.7412 14 75.4064 14.0289 76.0426 14.1157C76.7078 14.2024 77.3152 14.3181 77.9225 14.4338C78.5009 14.5784 79.0504 14.723 79.571 14.8966C80.0916 15.0701 80.4965 15.2436 80.7857 15.4171C81.1906 15.6485 81.4798 15.8799 81.6533 16.1402C81.8268 16.3715 81.9136 16.6897 81.9136 17.0945V18.4538C81.9136 19.0612 81.6822 19.3793 81.2484 19.3793C81.017 19.3793 80.6411 19.2636 80.1494 19.0323C78.5009 18.2803 76.65 17.9043 74.5966 17.9043C72.9481 17.9043 71.6466 18.1646 70.7501 18.7141C69.8535 19.2636 69.3908 20.1023 69.3908 21.2881C69.3908 22.0979 69.68 22.792 70.2584 23.3415C70.8368 23.891 71.9069 24.4405 73.4397 24.9321L77.5465 26.2336C79.6288 26.8988 81.1327 27.8242 82.0293 29.01C82.9258 30.1958 83.3596 31.5551 83.3596 33.059C83.3596 34.3026 83.0994 35.4305 82.6077 36.4138C82.0871 37.3971 81.393 38.2647 80.4965 38.9588C79.5999 39.6819 78.5298 40.2024 77.2862 40.5784C75.9848 40.9833 74.6255 41.1858 73.1505 41.1858Z" fill="#252F3E"/>
<path fill-rule="evenodd" clip-rule="evenodd" d="M78.6166 55.2414C69.1016 62.2692 55.2773 66 43.3908 66C26.7323 66 11.7223 59.8398 0.385233 49.6018C-0.511319 48.792 0.29847 47.693 1.36855 48.3292C13.6311 55.4438 28.7568 59.753 44.403 59.753C54.9592 59.753 66.5565 57.5551 77.2284 53.0434C78.8191 52.3203 80.1783 54.0845 78.6166 55.2414Z" fill="#FF9900"/>
<path fill-rule="evenodd" clip-rule="evenodd" d="M82.5788 50.7297C81.3641 49.168 74.5387 49.9777 71.4442 50.3537C70.5187 50.4694 70.3741 49.6596 71.2128 49.0523C76.6499 45.2347 85.5865 46.3337 86.6277 47.6062C87.6689 48.9077 86.3385 57.8443 81.2484 62.1246C80.4675 62.7898 79.7156 62.4427 80.0626 61.5751C81.2195 58.7119 83.7934 52.2625 82.5788 50.7297Z" fill="#FF9900"/>
</g>
<defs>
<clipPath id="clip0">
<rect width="87" height="80" fill="white"/>
</clipPath>
</defs>
</svg>
