<svg width="160" height="80" viewBox="0 0 160 80" fill="none" xmlns="http://www.w3.org/2000/svg">
<mask id="mask0_4499_14580" style="mask-type:alpha" maskUnits="userSpaceOnUse" x="8" y="27" width="144" height="26">
<path d="M151.578 27H8V52.1819H151.578V27Z" fill="white"/>
</mask>
<g mask="url(#mask0_4499_14580)">
<path d="M12.0654 48.721C14.4895 50.942 17.7035 52.1801 21.0448 52.1801C24.3861 52.1801 27.6 50.942 30.0242 48.721C28.48 48.049 26.8588 47.5561 25.1946 47.2524L21.0558 36.4454H20.9959L16.8571 47.2554C15.206 47.5609 13.5977 48.0528 12.0654 48.721ZM34.0966 39.5805C34.0968 37.5836 33.6057 35.6151 32.6639 33.8374C31.7219 32.0597 30.3562 30.5235 28.6791 29.3556C27.0021 28.1876 25.0617 27.4212 23.0179 27.1195C20.974 26.8178 18.8852 26.9895 16.9235 27.6204C14.9618 28.2513 13.1834 29.3233 11.7348 30.7482C10.2862 32.1731 9.20879 33.91 8.59143 35.8159C7.97407 37.7218 7.8344 39.742 8.18391 41.7103C8.53342 43.6785 9.36212 45.5383 10.6017 47.1366L17.6931 31.2932H24.2545L31.3964 47.2585C33.1517 45.062 34.1015 42.3644 34.0966 39.5897" fill="#E83F4E"/>
<path d="M143.477 44.5923L140.427 45.3844C140.866 47.1181 142.708 49.0406 146.272 49.0406C149.064 49.0406 151.575 47.4319 151.575 45.031C151.575 42.9775 150.14 41.6643 147.989 41.1951L145.604 40.6497C144.452 40.3785 144.067 39.8331 144.067 39.1903C144.067 38.325 144.887 37.6303 146.067 37.6303C147.373 37.6303 148.039 38.4712 148.298 39.4127L151.244 38.6449C150.808 36.9448 149.168 35.2264 146.067 35.2264C143.298 35.2264 140.916 36.8838 140.916 39.2604C140.916 41.3657 142.326 42.6759 144.606 43.1968L146.912 43.7178C148.039 43.989 148.399 44.51 148.399 45.1042C148.399 45.9207 147.603 46.6123 146.272 46.6123C144.758 46.6123 143.837 45.8201 143.477 44.6075V44.5923ZM135.124 48.6323H138.459V35.6316H135.124V48.6323ZM136.793 34.2514C137.047 34.2603 137.3 34.2206 137.539 34.1345C137.777 34.0484 137.995 33.9175 138.181 33.7496C138.367 33.5817 138.516 33.3799 138.62 33.1559C138.725 32.9319 138.783 32.6902 138.79 32.4446C138.755 31.9557 138.529 31.4977 138.158 31.1633C137.787 30.8288 137.299 30.6428 136.791 30.6428C136.284 30.6428 135.795 30.8288 135.424 31.1633C135.054 31.4977 134.828 31.9557 134.793 32.4446C134.8 32.6905 134.858 32.9325 134.962 33.1566C135.067 33.3808 135.217 33.5827 135.403 33.7507C135.589 33.9187 135.808 34.0495 136.046 34.1354C136.285 34.2214 136.538 34.2608 136.793 34.2514ZM125.2 46.1949C123.124 46.1949 121.588 44.4643 121.588 42.0878C121.588 39.7113 123.137 38.0569 125.2 38.0569C127.38 38.0569 128.765 39.6168 128.765 42.0939C128.765 44.5709 127.38 46.1949 125.2 46.1949ZM132.042 46.8042V31.0522H128.711V37.4506C127.944 36.1892 126.56 35.2964 124.585 35.2964C121.279 35.2964 118.257 37.8954 118.257 42.1061C118.257 46.262 121.203 48.9858 124.638 48.9858C126.714 48.9858 128.15 47.9712 128.891 46.5483V46.7708C128.891 47.3801 128.916 48.0321 128.97 48.6263H132.124C132.073 47.9834 132.045 47.3893 132.045 46.7982L132.042 46.8042ZM111.368 35.2264C109.497 35.2264 107.727 36.1404 106.986 38.0477V35.6316H103.806V48.6323H107.137V41.6247C107.137 39.2482 108.601 37.9868 110.317 37.9868C112.033 37.9868 112.841 39.0257 112.841 41.1067V48.6323H116.171V40.7564C116.171 36.9691 113.995 35.2111 111.38 35.2111L111.368 35.2264ZM94.4559 46.2497C96.6075 46.2497 98.2729 44.5679 98.2729 42.1426C98.2729 39.7174 96.6075 38.0081 94.4559 38.0081C92.3043 38.0081 90.6702 39.693 90.6702 42.1426C90.6702 44.5923 92.3363 46.2497 94.4559 46.2497ZM94.4559 49.0467C90.5099 49.0467 87.3584 46.1522 87.3584 42.1426C87.3584 38.133 90.5099 35.2264 94.4559 35.2264C98.4026 35.2264 101.579 38.1239 101.579 42.1579C101.601 43.0683 101.432 43.9735 101.082 44.8191C100.732 45.6647 100.209 46.4331 99.5433 47.0782C98.8778 47.7232 98.0839 48.2315 97.2098 48.5725C96.3351 48.9134 95.3984 49.0799 94.4559 49.0619V49.0467ZM80.0967 49.0619C83.2729 49.0619 85.5823 47.2826 86.3234 44.8787L83.1973 43.9159C82.8818 45.0036 81.9673 46.265 80.0967 46.265C78.1504 46.265 76.4563 44.6319 76.4563 42.1579C76.4563 39.6839 78.1504 38.0234 80.0967 38.0234C81.9673 38.0234 82.8127 39.3121 83.1217 40.4242L86.2986 39.434C85.5568 36.9935 83.327 35.2264 80.0967 35.2264C76.3299 35.2264 73.1566 38.0477 73.1566 42.1579C73.1566 46.268 76.3364 49.0619 80.0967 49.0619ZM71.1503 35.4335C69.8444 35.4335 68.5889 36.2501 68.0999 38.1087V35.6316H64.898V48.6323H68.2482V41.8684C68.2482 40.0403 69.1188 38.7759 71.0147 38.7759C71.4016 38.7786 71.7877 38.8113 72.1692 38.8734V35.5829C71.8384 35.4788 71.4919 35.4284 71.144 35.4335H71.1503ZM51.8446 41.2743L53.5638 36.7711C53.9992 35.5829 54.4093 34.1722 54.4093 34.1722H54.4597C54.4597 34.1722 54.8446 35.5829 55.2799 36.7711L56.9959 41.2743H51.8446ZM59.8161 48.6323H63.3776L56.5102 31.299H52.3336L45.4883 48.6323H49.0276L50.7942 43.9798H58.0496L59.8161 48.6323Z" fill="#3C3246"/>
</g>
</svg>
