<svg width="160" height="80" viewBox="0 0 160 80" fill="none" xmlns="http://www.w3.org/2000/svg">
<path d="M47.3111 23.0366H17V55.8715H47.3111V23.0366Z" fill="#690CEB"/>
<path d="M108.34 34.9266C109.967 34.9266 111.558 35.4493 112.911 36.4287C114.264 37.4081 115.319 38.8 115.941 40.4287C116.564 42.0573 116.727 43.8493 116.41 45.5783C116.092 47.3072 115.308 48.8953 114.158 50.1418C113.007 51.3883 111.541 52.2371 109.945 52.581C108.349 52.9249 106.695 52.7484 105.191 52.0738C103.688 51.3993 102.403 50.2569 101.499 48.7912C100.595 47.3255 100.112 45.6022 100.112 43.8395C100.112 41.4756 100.979 39.2086 102.522 37.5371C104.065 35.8656 106.158 34.9266 108.34 34.9266M108.34 31.6789C106.118 31.678 103.947 32.3908 102.099 33.7272C100.252 35.0636 98.8116 36.9634 97.9611 39.1865C97.1106 41.4096 96.8879 43.856 97.3211 46.2162C97.7542 48.5764 98.8239 50.7445 100.395 52.4461C101.966 54.1477 103.967 55.3064 106.146 55.7757C108.325 56.2449 110.583 56.0036 112.635 55.0823C114.687 54.161 116.441 52.601 117.675 50.5998C118.909 48.5985 119.567 46.2459 119.566 43.8395C119.563 40.6146 118.38 37.5225 116.275 35.2417C114.171 32.961 111.317 31.678 108.34 31.6743V31.6789Z" fill="black"/>
<path d="M70.5916 31.8348H63.0117C62.7407 31.8348 62.7195 31.8027 62.7195 31.766V23.9174C62.7212 23.8027 62.7019 23.6889 62.6627 23.5824C62.6234 23.4759 62.5651 23.3789 62.4911 23.297C62.4171 23.2151 62.3288 23.1499 62.2313 23.1052C62.1339 23.0605 62.0292 23.0372 61.9234 23.0366H60.5853C60.4794 23.0372 60.3748 23.0605 60.2773 23.1052C60.1799 23.1499 60.0916 23.2151 60.0176 23.297C59.9435 23.3789 59.8852 23.4759 59.846 23.5824C59.8068 23.6889 59.7875 23.8027 59.7892 23.9174V43.5504C59.7892 50.1696 64.7817 55.9862 70.8922 56.0183C72.3653 56.0231 73.8247 55.7123 75.1864 55.1038C76.5481 54.4952 77.7852 53.601 78.8266 52.4724C79.868 51.3439 80.6931 50.0034 81.2544 48.5281C81.8156 47.0527 82.102 45.4717 82.0969 43.8761C82.0715 37.2201 76.7063 31.8348 70.5916 31.8348ZM71.015 52.8256C66.3824 52.8577 62.7322 48.5779 62.7322 43.5779V35.0733C62.7316 35.0645 62.7327 35.0557 62.7354 35.0473C62.7382 35.039 62.7424 35.0314 62.748 35.0249C62.7536 35.0185 62.7603 35.0133 62.7678 35.0098C62.7753 35.0063 62.7833 35.0045 62.7915 35.0045H70.6466C75.2623 35.0045 79.2132 38.9724 79.1836 43.9724C79.1647 46.3164 78.295 48.5582 76.7625 50.2132C75.23 51.8681 73.1578 52.8033 70.9939 52.8164L71.015 52.8256Z" fill="black"/>
<path d="M142.135 23H120.437C120.21 23.006 119.995 23.1077 119.837 23.2834C119.679 23.4591 119.59 23.6949 119.59 23.9404V25.2294C119.587 25.3518 119.607 25.4735 119.648 25.5875C119.69 25.7015 119.752 25.8053 119.831 25.893C119.909 25.9806 120.004 26.0502 120.108 26.0978C120.212 26.1453 120.324 26.1698 120.437 26.1697H128.957C129.07 26.1697 129.182 26.1942 129.286 26.2417C129.39 26.2892 129.485 26.3589 129.563 26.4465C129.642 26.5341 129.704 26.638 129.746 26.752C129.787 26.8659 129.807 26.9877 129.804 27.1101V54.3899C129.809 54.6353 129.903 54.8686 130.066 55.0401C130.228 55.2115 130.445 55.3074 130.672 55.3073H131.866C132.089 55.3015 132.301 55.203 132.459 55.0322C132.617 54.8614 132.708 54.6314 132.713 54.3899V27.1284C132.71 27.0041 132.731 26.8804 132.773 26.7649C132.816 26.6494 132.88 26.5444 132.961 26.4565C133.042 26.3685 133.139 26.2994 133.246 26.2532C133.352 26.2071 133.466 26.1849 133.581 26.1881H142.135C142.248 26.1911 142.36 26.1697 142.466 26.1249C142.571 26.0802 142.667 26.0131 142.748 25.9276C142.829 25.8421 142.893 25.7399 142.937 25.6271C142.981 25.5143 143.003 25.3931 143.003 25.2706V23.9404C143.003 23.691 142.912 23.4518 142.749 23.2754C142.586 23.0991 142.365 23 142.135 23V23Z" fill="black"/>
<path d="M90.0204 31.7935H89.1947C88.6147 31.7935 88.1445 32.3028 88.1445 32.9311V54.8577C88.1445 55.486 88.6147 55.9953 89.1947 55.9953H90.0204C90.6004 55.9953 91.0706 55.486 91.0706 54.8577V32.9311C91.0706 32.3028 90.6004 31.7935 90.0204 31.7935Z" fill="black"/>
<path d="M89.6097 26.1836C90.4189 26.1836 91.0749 25.473 91.0749 24.5964C91.0749 23.7199 90.4189 23.0093 89.6097 23.0093C88.8005 23.0093 88.1445 23.7199 88.1445 24.5964C88.1445 25.473 88.8005 26.1836 89.6097 26.1836Z" fill="black"/>
<path d="M41.3978 43.7292C37.8742 43.7255 34.4959 42.208 32.0039 39.5094C29.512 36.8108 28.11 33.1516 28.1055 29.3347V27.2613C28.1066 26.6923 28.3157 26.147 28.6872 25.7446C29.0586 25.3423 29.562 25.1157 30.0873 25.1145H34.1397C34.665 25.1157 35.1684 25.3423 35.5398 25.7446C35.9113 26.147 36.1204 26.6923 36.1215 27.2613V29.3347C36.1227 30.8502 36.6789 32.3033 37.6682 33.3749C38.6574 34.4465 39.9988 35.0491 41.3978 35.0503H43.4135C43.6754 35.0509 43.9346 35.1076 44.1761 35.2171C44.4177 35.3266 44.6369 35.4868 44.8211 35.6885C45.0053 35.8902 45.1508 36.1293 45.2494 36.3921C45.3479 36.655 45.3975 36.9363 45.3953 37.22V41.6053C45.3942 42.1743 45.185 42.7197 44.8136 43.122C44.4422 43.5243 43.9387 43.7509 43.4135 43.7521L41.3978 43.7292Z" fill="white"/>
<path d="M34.1444 25.344C34.6136 25.3452 35.0631 25.5476 35.3948 25.9069C35.7265 26.2662 35.9134 26.7532 35.9145 27.2614V29.3348C35.9145 30.9164 36.4945 32.4332 37.5269 33.5515C38.5592 34.6698 39.9595 35.2981 41.4195 35.2981H43.4351C43.9024 35.3029 44.3489 35.5077 44.6773 35.8678C45.0057 36.2278 45.1894 36.714 45.1882 37.2201V41.6054C45.1882 42.114 45.0018 42.6017 44.6698 42.9613C44.3379 43.3209 43.8876 43.5229 43.4182 43.5229H41.4025C37.9314 43.5192 34.6037 42.0227 32.1509 39.3621C29.698 36.7016 28.3208 33.0949 28.3219 29.3348V27.2614C28.323 26.7532 28.5099 26.2662 28.8416 25.9069C29.1733 25.5476 29.6228 25.3452 30.092 25.344H34.1444M34.1444 24.8853H30.092C29.5105 24.8865 28.9533 25.1372 28.5421 25.5826C28.131 26.0279 27.8996 26.6316 27.8984 27.2614V29.3348C27.9029 33.2126 29.3272 36.9301 31.8589 39.6717C34.3906 42.4133 37.8228 43.955 41.4025 43.9586H43.4182C43.9996 43.9574 44.5569 43.7067 44.968 43.2614C45.3791 42.816 45.6106 42.2123 45.6117 41.5825V37.2201C45.6106 36.5903 45.3791 35.9866 44.968 35.5413C44.5569 35.0959 43.9996 34.8452 43.4182 34.844H41.4025C40.0548 34.844 38.7623 34.264 37.8094 33.2317C36.8564 32.1994 36.321 30.7993 36.321 29.3394V27.2614C36.3199 26.6316 36.0884 26.0279 35.6773 25.5826C35.2662 25.1372 34.7089 24.8865 34.1275 24.8853H34.1444Z" fill="white"/>
<path d="M30.1693 53.798C29.644 53.7968 29.1406 53.5702 28.7692 53.1679C28.3977 52.7656 28.1886 52.2202 28.1875 51.6512V49.4081C28.1864 47.8958 27.6324 46.4455 26.6468 45.3744C25.6612 44.3033 24.3242 43.6986 22.9281 43.6925H20.8998C20.3745 43.6913 19.8711 43.4647 19.4997 43.0624C19.1282 42.6601 18.9191 42.1147 18.918 41.5457V37.1604C18.918 36.5906 19.1266 36.0441 19.4982 35.6408C19.8697 35.2374 20.3738 35.0102 20.8998 35.009H22.9281C26.4495 35.0175 29.8242 36.5379 32.3126 39.2369C34.801 41.936 36.2002 45.5935 36.2035 49.4081V51.6512C36.2024 52.2202 35.9933 52.7656 35.6218 53.1679C35.2504 53.5702 34.747 53.7968 34.2218 53.798H30.1693Z" fill="white"/>
<path d="M22.9299 35.2385C26.3948 35.2482 29.7149 36.7448 32.1634 39.4006C34.6119 42.0563 35.9891 45.6549 35.9936 49.4082V51.6514C35.9925 52.1595 35.8056 52.6465 35.4739 53.0059C35.1422 53.3652 34.6926 53.5676 34.2235 53.5688H30.171C29.7019 53.5676 29.2524 53.3652 28.9206 53.0059C28.5889 52.6465 28.4021 52.1595 28.401 51.6514V49.4082C28.401 48.6251 28.2586 47.8497 27.9819 47.1262C27.7053 46.4027 27.2998 45.7453 26.7886 45.1916C26.2774 44.6378 25.6706 44.1986 25.0027 43.8989C24.3348 43.5992 23.6189 43.4449 22.896 43.4449H20.9015C20.4328 43.4486 19.9819 43.2507 19.6477 42.8947C19.3135 42.5387 19.1232 42.0536 19.1188 41.5459V37.1605C19.1188 36.6516 19.3051 36.1634 19.637 35.8031C19.9688 35.4428 20.419 35.2397 20.8888 35.2385H22.9299ZM22.9299 34.7798H20.9015C20.6122 34.7786 20.3255 34.8393 20.0579 34.9584C19.7903 35.0775 19.547 35.2527 19.342 35.4739C19.137 35.695 18.9744 35.9579 18.8634 36.2473C18.7524 36.5368 18.6953 36.8471 18.6953 37.1605V41.5459C18.6953 42.1761 18.9264 42.7804 19.3378 43.226C19.7491 43.6717 20.3071 43.922 20.8888 43.922H22.9299C24.2776 43.922 25.5701 44.5019 26.5231 45.5343C27.476 46.5666 28.0114 47.9667 28.0114 49.4266V51.6697C28.0125 52.2995 28.244 52.9032 28.6551 53.3486C29.0662 53.7939 29.6235 54.0446 30.2049 54.0459H34.2574C34.8388 54.0446 35.3961 53.7939 35.8072 53.3486C36.2183 52.9032 36.4498 52.2995 36.4509 51.6697V49.4082C36.4464 45.5269 35.0199 41.8061 32.4847 39.0633C29.9495 36.3204 26.513 34.7798 22.9299 34.7798V34.7798Z" fill="white"/>
</svg>
