<svg width="251" height="80" viewBox="0 0 251 80" fill="none" xmlns="http://www.w3.org/2000/svg">
<g clip-path="url(#clip0)">
<path d="M29.5661 30.6371H30.9869L35.0368 26.5872L35.2354 24.8671C27.6978 18.2133 16.1942 18.9321 9.54037 26.4697C7.69163 28.5618 6.35192 31.0538 5.61914 33.75C6.06944 33.5655 6.57008 33.5347 7.03996 33.6661L15.1397 32.3292C15.1397 32.3292 15.5509 31.6468 15.7662 31.6887C19.3686 27.7311 25.4323 27.2697 29.594 30.6371H29.5661Z" fill="#EA4335"/>
<path d="M40.8067 33.75C39.8753 30.3211 37.965 27.2389 35.308 24.8839L29.6247 30.5672C32.0245 32.5278 33.3921 35.4841 33.3334 38.5831V39.5927C36.1275 39.5927 38.393 41.8582 38.393 44.6523C38.393 47.4464 36.1275 49.7119 33.3334 49.7119H23.2143L22.2046 50.7355V56.8048L23.2143 57.8144H33.3334C40.5997 57.8704 46.5375 52.0249 46.5934 44.7586C46.627 40.3451 44.4538 36.2169 40.8067 33.75Z" fill="#4285F4"/>
<path d="M13.0811 57.7501H23.2002V49.6503H13.0811C12.3595 49.6503 11.6491 49.4937 10.9918 49.1944L9.571 49.6363L5.49314 53.6862L5.13794 55.1071C7.42299 56.8355 10.2143 57.7641 13.0811 57.7501Z" fill="#34A853"/>
<path d="M13.0813 31.4762C5.81215 31.5181 -0.0417292 37.4447 0.000224099 44.7138C0.0253961 48.7721 1.91889 52.5926 5.1381 55.0651L11.006 49.1972C8.4608 48.0477 7.32806 45.0494 8.47758 42.5043C9.6271 39.9591 12.6254 38.8264 15.1705 39.9759C16.2921 40.4821 17.1899 41.3827 17.6989 42.5043L23.5668 36.6364C21.072 33.3696 17.1899 31.4594 13.0813 31.4762Z" fill="#FBBC05"/>
<path d="M73.5332 52.0948C70.0119 52.1396 66.6277 50.7495 64.1552 48.2435C61.6017 45.8438 60.1753 42.4819 60.22 38.9774C60.1781 35.4729 61.6045 32.1139 64.1552 29.7113C66.6165 27.1802 70.0035 25.7621 73.5332 25.7901C76.895 25.7454 80.1366 27.0515 82.528 29.4149L79.9996 31.988C78.2683 30.3127 75.9413 29.3953 73.5332 29.4289C71.0076 29.3981 68.5827 30.4301 66.8542 32.2705C65.0586 34.0521 64.0685 36.491 64.1105 39.0194C64.0881 41.5198 65.0782 43.9223 66.8542 45.6844C70.5126 49.3315 76.4112 49.4014 80.1562 45.841C81.2722 44.6215 81.9546 43.0665 82.1028 41.4219H73.5751V37.786H85.6409C85.7584 38.5187 85.8059 39.2599 85.7835 40.0039C85.9346 43.1056 84.8102 46.1347 82.6706 48.3889C80.2905 50.8642 76.9678 52.2123 73.5332 52.0948ZM101.586 49.6783C98.2213 52.9031 92.9128 52.9031 89.5481 49.6783C87.9176 48.0981 87.0282 45.9081 87.0897 43.6398C87.0282 41.3716 87.9204 39.1816 89.5481 37.6014C92.9156 34.3849 98.2185 34.3849 101.586 37.6014C103.214 39.1816 104.106 41.3716 104.044 43.6398C104.103 45.9109 103.205 48.1009 101.572 49.6783H101.586ZM92.2052 47.3066C93.9421 49.1637 96.8564 49.2588 98.7135 47.5191C98.7863 47.4492 98.859 47.3793 98.9261 47.3066C99.8742 46.3248 100.386 45.0047 100.347 43.6398C100.389 42.2722 99.877 40.9436 98.9261 39.9591C97.1389 38.0964 94.1798 38.0321 92.3143 39.8193C92.2667 39.864 92.2192 39.9116 92.1744 39.9591C91.2235 40.9436 90.7117 42.2722 90.7536 43.6398C90.7172 45.0047 91.2347 46.3276 92.1884 47.3066H92.2052ZM120.087 49.6783C116.723 52.9031 111.414 52.9031 108.05 49.6783C106.419 48.0981 105.53 45.9081 105.591 43.6398C105.53 41.3716 106.422 39.1816 108.05 37.6014C111.414 34.3766 116.723 34.3766 120.087 37.6014C121.715 39.1816 122.607 41.3716 122.546 43.6398C122.61 45.9081 121.718 48.0981 120.087 49.6783ZM110.709 47.3066C112.446 49.1637 115.361 49.2588 117.218 47.5191C117.29 47.4492 117.363 47.3793 117.43 47.3066C118.378 46.3248 118.89 45.0047 118.851 43.6398C118.893 42.2722 118.381 40.9436 117.43 39.9591C115.643 38.0964 112.684 38.0321 110.821 39.8193C110.774 39.864 110.726 39.9116 110.681 39.9591C109.73 40.9436 109.219 42.2722 109.261 43.6398C109.224 45.0047 109.742 46.3276 110.695 47.3066H110.709ZM132.251 59.6828C130.548 59.7359 128.878 59.2045 127.519 58.1753C126.313 57.2691 125.362 56.0636 124.761 54.6791L128 53.3282C128.352 54.1561 128.903 54.8833 129.605 55.4455C130.355 56.0496 131.297 56.3685 132.262 56.3405C133.498 56.416 134.707 55.9489 135.574 55.0623C136.43 54.0303 136.852 52.7045 136.754 51.3676V50.1454H136.625C135.526 51.4487 133.879 52.1592 132.178 52.0641C130.022 52.0697 127.961 51.1746 126.495 49.5916C124.906 48.0226 124.028 45.8718 124.065 43.637C124.025 41.3911 124.904 39.2264 126.495 37.6405C127.958 36.0519 130.019 35.1485 132.178 35.1541C133.082 35.1513 133.977 35.3527 134.793 35.7358C135.501 36.0435 136.13 36.505 136.642 37.0867H136.771V35.7358H140.295V50.8698C140.482 53.2891 139.666 55.6804 138.035 57.4788C136.483 58.964 134.399 59.7583 132.251 59.6828ZM132.508 48.7693C133.736 48.7973 134.914 48.2743 135.719 47.3485C136.595 46.3444 137.059 45.0439 137.011 43.7098C137.064 42.3533 136.603 41.0303 135.719 40.0011C134.914 39.0725 133.736 38.5523 132.508 38.5803C131.247 38.5551 130.036 39.0725 129.183 40.0011C128.243 40.994 127.731 42.3169 127.762 43.6818C127.734 45.0355 128.243 46.3444 129.183 47.3205C130.03 48.2575 131.241 48.7861 132.508 48.7693ZM146.563 26.7439V51.583H142.854V26.7439H146.563ZM156.738 52.0948C154.492 52.1536 152.324 51.2725 150.755 49.6643C149.164 48.0701 148.294 45.8913 148.353 43.6398C148.269 41.3828 149.105 39.1872 150.668 37.5566C152.145 36.0015 154.209 35.1401 156.352 35.1821C157.328 35.1709 158.293 35.3611 159.193 35.7358C160.004 36.0631 160.743 36.5469 161.367 37.1567C161.904 37.6741 162.379 38.2502 162.787 38.8767C163.117 39.4054 163.397 39.9619 163.626 40.5381L164.01 41.5058L152.643 46.1822C153.348 47.7988 154.973 48.8169 156.735 48.7414C158.438 48.747 160.018 47.8547 160.899 46.3976L163.741 48.3162C163.017 49.3539 162.088 50.2349 161.011 50.9034C159.736 51.7089 158.248 52.1228 156.738 52.0948ZM151.991 43.3825L159.551 40.2416C159.319 39.6878 158.903 39.2319 158.371 38.9495C157.778 38.6138 157.107 38.4432 156.424 38.4516C155.269 38.4824 154.17 38.9662 153.37 39.8025C152.4 40.7311 151.894 42.0428 151.991 43.3825Z" fill="#5F6368"/>
<path d="M183.44 52.0948C176.973 52.2067 171.642 47.0548 171.53 40.5884C171.528 40.4318 171.528 40.2723 171.533 40.1157C171.382 33.6493 176.503 28.2877 182.967 28.1367C183.124 28.1339 183.283 28.1339 183.44 28.1339C186.673 28.0332 189.778 29.4148 191.867 31.8845L189.82 33.8731C188.284 31.9404 185.918 30.858 183.454 30.9587C181.09 30.9056 178.805 31.8202 177.13 33.4871C175.387 35.2408 174.456 37.6405 174.557 40.1101C174.453 42.5798 175.387 44.9795 177.13 46.7332C178.805 48.4029 181.09 49.3147 183.454 49.2615C186.206 49.2923 188.821 48.0673 190.558 45.936L192.605 47.9834C191.534 49.2643 190.189 50.288 188.67 50.9816C187.031 51.7424 185.244 52.1228 183.44 52.0948Z" fill="#5F6368"/>
<path d="M198.104 51.583H195.161V28.6317H198.104V51.583Z" fill="#5F6368"/>
<path d="M202.909 37.7692C206.117 34.5835 211.297 34.5835 214.505 37.7692C216.026 39.3774 216.846 41.5254 216.778 43.7377C216.846 45.95 216.026 48.098 214.505 49.7063C211.297 52.8919 206.117 52.8919 202.909 49.7063C201.387 48.098 200.568 45.95 200.635 43.7377C200.568 41.5254 201.384 39.3774 202.909 37.7692ZM205.096 47.8603C206.978 49.8489 210.116 49.9356 212.108 48.0533C212.175 47.9918 212.239 47.9246 212.301 47.8603C213.338 46.7472 213.886 45.262 213.822 43.7405C213.889 42.219 213.341 40.7339 212.301 39.6207C210.418 37.6321 207.28 37.5454 205.289 39.4277C205.222 39.4892 205.157 39.5564 205.096 39.6207C204.058 40.7339 203.51 42.219 203.574 43.7405C203.516 45.2592 204.069 46.7388 205.11 47.8463L205.096 47.8603Z" fill="#5F6368"/>
<path d="M233.076 51.583H230.234V49.4098H230.15C229.644 50.2349 228.928 50.9117 228.075 51.3704C227.191 51.8822 226.184 52.1535 225.161 52.1507C223.477 52.2654 221.835 51.6053 220.699 50.3607C219.623 48.9986 219.083 47.2897 219.178 45.5585V35.8952H222.12V45.0187C222.12 47.947 223.413 49.4098 226 49.4098C227.166 49.4461 228.276 48.9175 228.984 47.989C229.748 47.024 230.153 45.8242 230.136 44.5935V35.8952H233.079V51.583H233.076Z" fill="#5F6368"/>
<path d="M243.066 52.0948C241.047 52.1004 239.126 51.225 237.808 49.6923C236.334 48.0645 235.546 45.9333 235.604 43.7377C235.546 41.5422 236.334 39.411 237.808 37.7832C239.126 36.2533 241.047 35.375 243.066 35.3806C244.185 35.3639 245.29 35.6268 246.277 36.147C247.147 36.5833 247.883 37.2462 248.409 38.0656H248.537L248.409 35.8925V28.6317H251.351V51.583H248.509V49.4098H248.381C247.855 50.2293 247.119 50.8922 246.249 51.3285C245.27 51.8431 244.177 52.1088 243.066 52.0948ZM243.55 49.4098C244.896 49.4294 246.185 48.87 247.088 47.8743C248.087 46.736 248.599 45.2509 248.509 43.7377C248.599 42.2274 248.087 40.7395 247.088 39.6011C245.304 37.6377 242.267 37.4951 240.303 39.2823C240.191 39.383 240.085 39.4921 239.984 39.6011C238.983 40.7311 238.471 42.2134 238.563 43.721C238.471 45.2285 238.983 46.7108 239.984 47.8408C240.891 48.8588 242.191 49.4294 243.55 49.4098Z" fill="#5F6368"/>
</g>
<defs>
<clipPath id="clip0">
<rect width="251" height="80" fill="white"/>
</clipPath>
</defs>
</svg>
