<svg width="75" height="76" viewBox="0 0 75 76" fill="none" xmlns="http://www.w3.org/2000/svg">
<path fill-rule="evenodd" clip-rule="evenodd" d="M0 21.9593L21.9746 0H53.0259L75.0009 21.9593V53.0403L53.0259 75H21.9741L0 53.0403V21.9593ZM35.535 44.3148H38.4729C42.5032 44.3148 45.373 41.548 45.373 37.483C45.373 33.4186 42.5032 30.6518 38.4729 30.6518H35.535V44.3148ZM43.7039 31.5661H49.2315C50.1521 33.2913 50.6667 35.2985 50.6667 37.4832C50.6667 44.4858 45.4408 49.6432 38.4726 49.6432H36.4683L30.2409 37.4219V25.3584H38.4726C40.3695 25.3584 42.1362 25.7433 43.7039 26.4401V31.5661ZM44.6479 25.4272H64.3209V30.6199H57.1008V49.6442H51.8062V30.6199H44.6479V25.4272ZM23.0578 36.6694L25.838 42.1312H20.2444L23.0578 36.6694ZM28.4219 47.1601L29.6792 49.6431H35.4056L23.0599 25.4154L10.6815 49.6431H16.4073L17.6982 47.1601H28.4219Z" fill="#0061AA"/>
</svg>
