<svg width="172" height="76" viewBox="0 0 172 76" fill="none" xmlns="http://www.w3.org/2000/svg">
<path fill-rule="evenodd" clip-rule="evenodd" d="M23.0692 47.2304V50.8678H0.333984V25.8633H4.42622V47.2304H23.0692Z" fill="black"/>
<path fill-rule="evenodd" clip-rule="evenodd" d="M19.8867 34.9563L24.4337 26.3188H20.1136L16.7031 34.9563H19.8867Z" fill="black"/>
<path fill-rule="evenodd" clip-rule="evenodd" d="M57.0582 29.9688C55.5252 27.5989 53.4011 25.6693 50.8952 24.3704C48.3074 23.031 45.436 22.332 42.5222 22.332C39.6083 22.332 36.737 23.031 34.1492 24.3704C31.6431 25.6691 29.5189 27.5987 27.9861 29.9688C26.5035 32.2622 25.7148 34.9351 25.7148 37.666C25.7148 40.3969 26.5035 43.0697 27.9861 45.3632C29.5192 47.7334 31.6433 49.6632 34.1492 50.9626C36.7371 52.3014 39.6084 53.0001 42.5222 53.0001C45.4359 53.0001 48.3072 52.3014 50.8952 50.9626C53.4009 49.663 55.525 47.7332 57.0582 45.3632C58.5402 43.0695 59.3285 40.3968 59.3285 37.666C59.3285 34.9352 58.5402 32.2625 57.0582 29.9688V29.9688ZM53.5205 43.7865C52.3932 45.6295 50.8044 47.1463 48.9113 48.1871C46.9861 49.2399 44.8271 49.7916 42.6329 49.7916C40.4387 49.7916 38.2797 49.2399 36.3545 48.1871C34.4612 47.1466 32.8724 45.6297 31.7453 43.7865C30.6386 41.9699 30.0532 39.8837 30.0532 37.7566C30.0532 35.6294 30.6386 33.5433 31.7453 31.7267C32.8721 29.8833 34.461 28.3663 36.3545 27.326C38.2794 26.2724 40.4385 25.7201 42.6329 25.7201C44.8273 25.7201 46.9864 26.2724 48.9113 27.326C50.8046 28.3666 52.3934 29.8835 53.5205 31.7267C54.6272 33.5433 55.2126 35.6294 55.2126 37.7566C55.2126 39.8837 54.6272 41.9699 53.5205 43.7865V43.7865Z" fill="black"/>
<path fill-rule="evenodd" clip-rule="evenodd" d="M87.866 36.6475C87.172 38.0284 86.0322 39.1347 84.6312 39.7872C83.8211 40.2715 82.8947 40.5268 81.9509 40.5256V40.5256L89.9121 50.866H85.3651L77.6693 40.8651H67.6308V50.8679H63.5312V25.8642H79.9011C81.5781 25.8311 83.2354 26.23 84.7135 27.0227C86.2837 27.8503 87.4847 29.2388 88.0774 30.9118C88.6809 32.7897 88.6048 34.8201 87.8623 36.6475H87.866ZM83.2906 36.4755C83.7283 36.0874 84.0746 35.6071 84.3043 35.0691C84.5341 34.5311 84.6416 33.9488 84.6193 33.3642C84.5905 32.7756 84.4427 32.1988 84.185 31.6688C83.9272 31.1388 83.5647 30.6665 83.1195 30.2804C82.2491 29.6728 81.1897 29.3974 80.1336 29.5044H67.6272V37.2323H80.1317C81.2401 37.3614 82.3584 37.0943 83.2888 36.4782L83.2906 36.4755Z" fill="black"/>
<path fill-rule="evenodd" clip-rule="evenodd" d="M111.506 36.5468V39.9564H97.6372V47.2304H116.28V50.8678H93.5449V25.8633H116.28V29.5007H97.6372V36.5468H111.506Z" fill="black"/>
<path fill-rule="evenodd" clip-rule="evenodd" d="M111.733 22H105.595L103.094 25.1817L111.733 22Z" fill="black"/>
<path fill-rule="evenodd" clip-rule="evenodd" d="M124.295 44.5025L121.055 50.8669H116.963L129.694 25.8633H133.787L146.518 50.8669H142.426L139.186 44.5025H124.295ZM131.741 29.8814L125.916 41.3199H137.565L131.741 29.8814Z" fill="black"/>
<path fill-rule="evenodd" clip-rule="evenodd" d="M171.304 47.2304V50.8678H148.568V25.8633H152.661V47.2304H171.304Z" fill="black"/>
<path fill-rule="evenodd" clip-rule="evenodd" d="M169.531 30.881L169.496 30.2844C169.505 30.1584 169.488 30.032 169.446 29.9128C169.404 29.7936 169.339 29.684 169.254 29.5907C169.19 29.5136 169.1 29.463 169.001 29.4489C169.178 29.3871 169.327 29.2654 169.423 29.1048C169.539 28.9116 169.598 28.6895 169.592 28.4643C169.59 28.218 169.519 27.9773 169.387 27.7697C169.244 27.5953 169.058 27.4613 168.847 27.381C168.637 27.3008 168.409 27.277 168.186 27.3122H166.375V31.4859H167.078V29.7692H168.127C168.304 29.7511 168.481 29.799 168.624 29.9037C168.878 30.2029 168.766 30.5964 168.807 30.9304C168.801 31.1212 168.837 31.3109 168.913 31.4859H169.702V31.3568C169.558 31.2983 169.545 31.0887 169.527 30.8773L169.531 30.881ZM168.663 29.0417C168.482 29.1479 168.272 29.1956 168.063 29.178H167.072V27.907C167.504 27.9125 167.941 27.8878 168.37 27.9225C168.469 27.9334 168.563 27.9695 168.644 28.0273C168.726 28.0851 168.79 28.1628 168.833 28.2529C168.894 28.385 168.91 28.5334 168.88 28.6757C168.849 28.818 168.773 28.9465 168.663 29.0417V29.0417Z" fill="black"/>
<path fill-rule="evenodd" clip-rule="evenodd" d="M171.062 27.6249C170.634 26.8842 169.952 26.3243 169.142 26.0494C168.333 25.7745 167.451 25.8033 166.66 26.1306C165.87 26.4578 165.226 27.0611 164.848 27.8281C164.47 28.595 164.383 29.4733 164.604 30.2994C164.826 31.1254 165.34 31.8428 166.051 32.318C166.762 32.7931 167.621 32.9935 168.469 32.8819C169.317 32.7703 170.095 32.3543 170.659 31.7114C171.223 31.0685 171.534 30.2425 171.534 29.3873C171.533 28.7687 171.37 28.1612 171.062 27.6249ZM170.639 30.9191C170.277 31.5453 169.699 32.0182 169.013 32.25C168.328 32.4818 167.582 32.4565 166.913 32.1789C166.245 31.9014 165.701 31.3904 165.381 30.7412C165.062 30.0919 164.989 29.3488 165.177 28.65C165.365 27.9512 165.8 27.3445 166.402 26.9428C167.003 26.5411 167.731 26.3718 168.448 26.4665C169.165 26.5612 169.824 26.9133 170.301 27.4574C170.778 28.0015 171.041 28.7004 171.041 29.4239C171.04 29.9488 170.901 30.4643 170.639 30.9191V30.9191Z" fill="black"/>
</svg>
