<svg width="72" height="76" viewBox="0 0 72 76" fill="none" xmlns="http://www.w3.org/2000/svg">
<path d="M7.25293 50.6348V50.581C7.25293 48.8008 6.01234 47.8901 3.98858 47.8901H0.00195312V53.3128H4.07072C6.09165 53.3057 7.25293 52.2266 7.25293 50.6348Z" fill="#B40023"/>
<path d="M0 2V44.1328H4.33783C5.33647 44.0703 6.33757 44.2076 7.28253 44.5367C8.22749 44.8658 9.09733 45.38 9.84121 46.0493C10.3857 46.6244 10.8095 47.3027 11.0875 48.0442C11.3655 48.7858 11.4922 49.5756 11.4599 50.3669V50.4207C11.5207 51.7055 11.1576 52.9746 10.4265 54.0327C9.69537 55.0908 8.63683 55.8792 7.41383 56.2766L12.0278 63.022H7.17024L3.12415 56.9778H0V74H71.9901V2H0ZM31.8647 69.038H12.9654V65.4372H31.8661L31.8647 69.038ZM31.9114 63.0362H27.7803V50.6941L22.461 58.7682H22.3534L17.088 50.7734V63.0376H13.0107V44.1314H17.493L22.461 52.1248L27.4291 44.1314H31.9114V63.0362ZM47.5095 57.4467C47.5095 61.2004 44.6473 63.3068 40.5701 63.3068C37.616 63.3175 34.7612 62.2405 32.5501 60.2811L35.0086 57.3375C36.5503 58.7604 38.5553 59.5762 40.6522 59.6337C42.3517 59.6337 43.3784 58.958 43.3784 57.8503V57.7965C43.3784 56.7426 42.7312 56.2029 39.5717 55.3885C35.7649 54.4167 33.3092 53.3628 33.3092 49.609V49.5552C33.3092 46.1244 36.0623 43.8552 39.9229 43.8552C42.4724 43.8149 44.956 44.6666 46.9444 46.2632L44.7847 49.3952C43.3723 48.2922 41.659 47.6428 39.8705 47.5325C38.2773 47.5325 37.4403 48.262 37.4403 49.1799V49.2337C37.4403 50.476 38.2503 50.8811 41.5175 51.7182C45.3512 52.7169 47.5123 54.0952 47.5123 57.3843L47.5095 57.4467Z" fill="#B40023"/>
</svg>
