<svg width="158" height="76" viewBox="0 0 158 76" fill="none" xmlns="http://www.w3.org/2000/svg">
<g clip-path="url(#clip0)">
<path d="M73.5612 23.2681H68.7348C68.5488 23.4122 68.4004 23.5991 68.3021 23.8129C68.2039 24.0266 68.1587 24.261 68.1705 24.4959C68.1705 25.5363 68.7348 25.7727 68.7348 25.7727H73.0316C79.2482 25.7727 83.1572 29.9229 83.1572 38.1035C83.1572 46.9036 79.2971 50.7259 72.4578 50.7259H69.6994C69.5059 50.6978 69.3267 50.6076 69.1889 50.4688C69.051 50.3301 68.9619 50.1504 68.9349 49.9567C68.9349 48.3206 68.9239 37.9995 68.9239 37.1341C68.9239 32.8925 66.0221 30.5613 61.3202 30.5613C59.9498 30.4875 58.5874 30.8112 57.3967 31.4936C56.206 32.1759 55.2378 33.1877 54.6086 34.4073V31.7482C54.6166 31.6668 54.6068 31.5847 54.5797 31.5075C54.5527 31.4304 54.5091 31.3601 54.4521 31.3015C54.395 31.243 54.3259 31.1976 54.2495 31.1685C54.173 31.1395 54.0912 31.1275 54.0097 31.1334H46.0513C45.8853 31.2987 45.7539 31.4952 45.6646 31.7117C45.5753 31.9282 45.5299 32.1603 45.5311 32.3944C45.5145 32.626 45.5528 32.8581 45.6429 33.0721C45.7331 33.286 45.8724 33.4756 46.0497 33.6255H47.8308C48.0967 33.6572 48.342 33.7845 48.521 33.9838C48.6999 34.183 48.8003 34.4405 48.8034 34.7083C48.8034 35.1812 48.8034 49.963 48.8034 49.963C48.7727 50.1446 48.6847 50.3116 48.5522 50.4395C48.4197 50.5674 48.2498 50.6496 48.0673 50.6739H46.3523L45.5642 52.857L56.9304 52.8696C57.207 52.5533 57.3495 52.1417 57.3276 51.7221C57.3411 51.5282 57.3133 51.3336 57.2459 51.1513C57.1785 50.9689 57.0731 50.803 56.9367 50.6645H55.5953C55.4155 50.6634 55.243 50.593 55.1138 50.4679C54.9846 50.3428 54.9087 50.1727 54.9018 49.993V38.1224C56.0193 35.085 58.193 33.2913 59.982 33.2913C60.381 33.2933 60.7749 33.3804 61.1376 33.5467C61.5003 33.713 61.8234 33.9547 62.0853 34.2557C62.3472 34.5567 62.5419 34.9101 62.6565 35.2923C62.7711 35.6745 62.8029 36.0767 62.7498 36.4721C62.7498 37.4588 62.7404 48.0842 62.7372 49.8385C62.7515 50.038 62.6895 50.2354 62.5636 50.3909C62.4377 50.5463 62.2575 50.648 62.0594 50.6755H60.447C60.2965 50.8057 60.178 50.9689 60.1009 51.1523C60.0238 51.3358 59.9901 51.5345 60.0025 51.7332C59.9934 51.946 60.0296 52.1583 60.1086 52.3561C60.1877 52.5539 60.3079 52.7327 60.4611 52.8806H73.826C87.1435 52.8806 90.5734 44.8939 90.5734 38.0909C90.5765 27.3915 83.1478 23.2681 73.5612 23.2681Z" fill="#E80028"/>
<path d="M43.6386 50.6877C42.2011 50.5301 42.0245 49.6837 42.0025 48.73V37.066C42.0293 36.1525 41.8603 35.2438 41.5068 34.401C41.1534 33.5582 40.6237 32.8008 39.9534 32.1797C38.0069 30.8097 35.6523 30.1426 33.2765 30.2882C30.6836 30.224 28.0994 30.6145 25.6413 31.442C25.3686 31.5397 25.3008 31.7951 25.3008 32.1481C25.3008 33.3445 25.2929 33.9955 25.2929 35.3605C25.2888 35.4168 25.2963 35.4733 25.3149 35.5266C25.3335 35.5799 25.3629 35.6288 25.4011 35.6703C25.4394 35.7118 25.4857 35.7451 25.5374 35.768C25.589 35.7908 25.6447 35.8029 25.7011 35.8034H26.9479C27.0879 35.7944 27.224 35.7532 27.3454 35.6829C27.4668 35.6126 27.5703 35.5152 27.6478 35.3983C28.2594 34.5821 29.0179 33.8871 29.8845 33.3492C30.7054 32.8926 31.6249 32.6421 32.564 32.6194C33.0559 32.6032 33.5454 32.6949 33.9981 32.8881C34.4507 33.0813 34.8555 33.3714 35.1841 33.7378C35.5127 34.1042 35.757 34.5382 35.8999 35.0091C36.0428 35.4801 36.0808 35.9766 36.0112 36.4638V39.7172C26.8565 39.1891 23.1035 41.8829 23.1035 46.1892C23.0288 47.1036 23.1495 48.0234 23.4579 48.8875C23.7662 49.7516 24.2549 50.5402 24.8916 51.2007C25.5283 51.8613 26.2983 52.3787 27.1505 52.7186C28.0027 53.0584 28.9175 53.2129 29.834 53.1719C31.0841 53.2502 32.3347 53.0257 33.4795 52.5175C34.6243 52.0093 35.6296 51.2324 36.41 50.2527C36.6748 51.7879 37.5843 52.8566 38.7917 52.8566H43.5645L44.3432 50.6767L43.6386 50.6877ZM36.0112 47.4596C35.5416 48.1112 34.9332 48.6505 34.23 49.0387C33.5268 49.4268 32.7462 49.6541 31.9446 49.7042C31.4903 49.7623 31.0287 49.7139 30.5963 49.5628C30.1639 49.4117 29.7727 49.162 29.4535 48.8335C29.1343 48.5051 28.896 48.1068 28.7574 47.6702C28.6188 47.2337 28.5838 46.7709 28.655 46.3184C28.655 43.6152 29.916 42.1272 36.0112 42.1272V47.4596Z" fill="#E80028"/>
<path d="M105.295 50.6782L102.773 50.6861C102.694 50.6941 102.614 50.6845 102.539 50.6579C102.464 50.6313 102.396 50.5885 102.339 50.5324C102.282 50.4764 102.239 50.4085 102.212 50.3337C102.185 50.2589 102.175 50.1789 102.182 50.0997C102.182 50.0997 102.169 32.4743 102.169 31.9636C102.169 31.4529 101.988 31.1172 101.381 31.1172H93.6388C93.3192 31.4477 93.1367 31.887 93.1281 32.3466C93.1383 32.8074 93.3204 33.2476 93.6388 33.5808L95.7935 33.5919C95.9511 33.5919 96.074 33.7069 96.074 33.9229C96.074 34.1388 96.0614 50.0556 96.0614 50.0556C96.0585 50.2126 95.9985 50.3633 95.8927 50.4793C95.7868 50.5953 95.6422 50.6688 95.4861 50.6861H92.9988C92.8422 50.8128 92.7182 50.9753 92.6373 51.1599C92.5564 51.3445 92.5209 51.5457 92.5338 51.7469C92.5348 52.1681 92.7019 52.5719 92.9988 52.8707H105.293C105.554 52.5434 105.697 52.1372 105.697 51.7185C105.705 51.5268 105.673 51.3355 105.604 51.1565C105.535 50.9775 105.43 50.8147 105.295 50.6782Z" fill="#E80028"/>
<path d="M10.0354 33.9401C5.77958 32.4758 4.91423 31.2511 4.91423 29.5267C4.91423 27.6604 6.64808 25.7831 10.3428 25.7831C11.7334 25.8193 13.086 26.2447 14.2471 27.011C15.3107 27.7398 16.1737 28.7248 16.7564 29.875C16.8039 29.9516 16.8679 30.0167 16.9437 30.0655C17.0195 30.1143 17.1052 30.1456 17.1946 30.1571H18.5344C18.7346 30.1445 18.8024 30.02 18.8024 29.7899C18.8024 28.8442 18.8103 26.2765 18.8118 24.7601C18.8093 24.6292 18.7638 24.5028 18.6823 24.4003C18.6009 24.2977 18.488 24.2248 18.361 24.1927C15.6963 23.3291 12.9053 22.9193 10.1047 22.9806C4.04888 22.9806 0.00585938 26.4215 0.00585938 31.6829C0.00585938 36.8482 3.93539 39.025 9.06444 40.6044C12.302 41.6006 16.1417 42.9435 16.1417 46.1448C16.1417 48.0363 14.4078 50.2304 10.9102 50.2304C9.9106 50.2868 8.91002 50.1382 7.96997 49.7937C7.02991 49.4492 6.17026 48.916 5.44385 48.227C4.23487 47.0759 3.2438 45.7159 2.51837 44.2124C2.41591 43.957 2.24568 43.7395 2.02501 43.7395H0.459813C0.24387 43.7395 0.0799435 43.8971 0.0799435 44.2124V50.0885C0.0807334 50.2263 0.113797 50.3619 0.176482 50.4845C0.239168 50.6072 0.329731 50.7134 0.4409 50.7947C3.60769 52.4188 7.12815 53.2312 10.6864 53.159C16.4885 53.1212 20.9886 49.2721 20.9886 43.0822C20.9823 36.4621 14.8854 35.6172 10.0354 33.9401Z" fill="#E80028"/>
<path d="M117.619 39.1438C113.167 38.0735 112.259 37.2901 112.259 35.7186C112.259 34.3883 113.41 32.9839 115.727 32.9839C116.804 33.0005 117.861 33.2773 118.807 33.7905C119.754 34.3037 120.562 35.0383 121.164 35.9314C121.223 36.0363 121.312 36.1217 121.419 36.1776C121.526 36.2335 121.647 36.2574 121.767 36.2467H122.856C122.895 36.2473 122.934 36.2403 122.97 36.2261C123.006 36.2118 123.038 36.1906 123.066 36.1637C123.094 36.1368 123.116 36.1046 123.132 36.0691C123.147 36.0336 123.155 35.9954 123.156 35.9566V32.098C123.167 31.9643 123.132 31.8307 123.057 31.7194C122.982 31.6081 122.871 31.5259 122.743 31.4865C120.438 30.8969 118.065 30.6176 115.686 30.6558C111.938 30.6558 107.868 32.8073 107.868 37.421C107.946 39.0649 108.575 40.6348 109.653 41.8783C110.731 43.1219 112.196 43.9669 113.812 44.2776C118.482 45.5385 119.836 46.2037 119.836 48.1976C119.836 49.9315 118.482 50.9671 116.128 50.9671C113.773 50.9671 111.556 49.2332 110.24 46.1328C110.035 45.8175 109.911 45.7072 109.697 45.7072C109.041 45.6899 108.382 45.7072 108.202 45.7072C108.149 45.7039 108.096 45.7123 108.046 45.7318C107.996 45.7512 107.951 45.7813 107.914 45.8198C107.878 45.8584 107.849 45.9045 107.832 45.955C107.815 46.0055 107.809 46.0592 107.815 46.1123C107.815 47.2314 107.815 50.3681 107.815 50.6487C107.815 51.0033 108.287 51.3769 108.287 51.3769C109.198 51.9181 110.159 52.3705 111.156 52.7277C112.757 53.2687 114.439 53.5299 116.129 53.5001C121.646 53.5001 124.28 50.0781 124.28 46.0918C124.296 42.4807 122.246 40.2471 117.619 39.1438Z" fill="#E80028"/>
<path d="M96.5451 28.0815H102.084C102.215 28.0963 102.347 28.0648 102.458 27.9926C102.568 27.9204 102.65 27.8119 102.689 27.6859L103.971 23.7233C104.062 23.3938 103.851 23.2252 103.542 23.2252H97.7367C97.6146 23.223 97.4957 23.2645 97.4014 23.3422C97.3072 23.42 97.2439 23.5289 97.2229 23.6492L96.1573 27.2966C95.9902 27.7174 96.2062 28.0815 96.5451 28.0815Z" fill="#E80028"/>
<path d="M151.595 50.6942C151.045 50.7483 150.49 50.6608 149.984 50.4401C149.477 50.2194 149.036 49.8728 148.701 49.4332C148.442 49.0486 141.537 38.51 141.392 38.2562C142.404 36.548 143.847 35.135 145.575 34.158C146.935 33.5505 148.406 33.2317 149.896 33.2217C149.907 33.2217 150.236 32.9601 150.236 32.183C150.254 31.9904 150.231 31.7963 150.171 31.6127C150.11 31.4291 150.012 31.26 149.883 31.1159H142.974C142.804 31.1367 142.64 31.196 142.495 31.2894C142.351 31.3828 142.23 31.5078 142.141 31.6549C141.983 31.874 136.562 39.6732 135.112 41.7633C135.112 34.1753 135.112 24.1773 135.112 24.0102C135.119 23.9068 135.104 23.803 135.067 23.706C135.031 23.6089 134.974 23.521 134.9 23.4481C134.826 23.3752 134.737 23.3191 134.64 23.2837C134.542 23.2482 134.438 23.2342 134.335 23.2426H125.685C125.542 23.3788 125.43 23.5445 125.357 23.7282C125.285 23.912 125.253 24.1093 125.264 24.3066C125.254 24.727 125.403 25.1355 125.682 25.4509H128.481C128.821 25.4509 128.973 25.6085 128.973 25.9648C128.973 26.321 128.973 50.163 128.973 50.163C128.973 50.5066 128.804 50.6721 128.563 50.6721H125.901C125.762 50.8151 125.652 50.984 125.579 51.1693C125.505 51.3546 125.469 51.5525 125.472 51.7518C125.474 52.1689 125.626 52.5712 125.901 52.8851L137.461 52.8757C137.665 52.5303 137.773 52.1371 137.776 51.7361C137.783 51.3594 137.673 50.99 137.461 50.6784H135.569C135.507 50.6762 135.445 50.6615 135.388 50.6352C135.331 50.6088 135.279 50.5714 135.237 50.525C135.195 50.4786 135.162 50.4242 135.141 50.3651C135.12 50.3059 135.11 50.2431 135.114 50.1803V44.5564C135.653 43.9952 136.635 42.9801 136.764 42.8446C136.821 42.7723 136.895 42.7154 136.98 42.6792C137.064 42.6429 137.156 42.6285 137.248 42.6371C137.34 42.6457 137.427 42.6772 137.504 42.7286C137.58 42.7799 137.642 42.8496 137.685 42.9313C137.908 43.2954 142.311 50.0448 142.413 50.2197C142.615 50.5571 142.492 50.7068 142.243 50.7068L140.876 50.7178C140.678 51.0411 140.565 51.4093 140.547 51.7881C140.561 52.1638 140.662 52.5311 140.842 52.8615L152.375 52.8804C152.599 52.5662 152.724 52.1925 152.734 51.807C152.712 51.4021 152.566 51.0137 152.317 50.6942H151.595Z" fill="#E80028"/>
<path d="M155.976 33.7229C155.976 33.6961 155.976 33.6661 155.976 33.6409V33.3887C155.987 33.2725 155.97 33.1554 155.926 33.0472C155.882 32.9391 155.813 32.8432 155.724 32.7677C155.602 32.6848 155.463 32.6309 155.317 32.6101C155.494 32.5969 155.664 32.5317 155.804 32.4225C155.875 32.3595 155.93 32.281 155.965 32.1933C156 32.1055 156.015 32.0108 156.007 31.9165C156.016 31.781 155.986 31.6457 155.919 31.5275C155.852 31.4093 155.752 31.3133 155.631 31.2513C155.461 31.1646 155.274 31.1156 155.084 31.1079C155.043 31.1079 154.852 31.1079 154.507 31.1079C154.162 31.1079 153.895 31.1079 153.719 31.1079V33.8931H154.445V32.8969H154.603L154.761 32.9095C154.844 32.9118 154.927 32.9262 155.006 32.9521C155.054 32.9684 155.098 32.9955 155.134 33.0313C155.17 33.0671 155.197 33.1107 155.213 33.1586C155.243 33.2713 155.26 33.3872 155.262 33.5038C155.267 33.6346 155.282 33.7648 155.308 33.8931H156.011L155.992 33.8159C155.984 33.7852 155.979 33.7542 155.976 33.7229ZM155.133 32.2932C155.013 32.3698 154.871 32.4063 154.729 32.3973H154.445V31.595H154.622C154.766 31.5897 154.91 31.6072 155.049 31.647C155.116 31.6675 155.174 31.7096 155.214 31.7666C155.254 31.8237 155.274 31.8925 155.271 31.9622C155.279 32.0247 155.271 32.0882 155.246 32.1463C155.222 32.2044 155.183 32.2551 155.133 32.2932V32.2932Z" fill="#E80028"/>
<path d="M156.597 30.7108C156.135 30.2435 155.509 29.976 154.852 29.9656C154.195 29.9553 153.56 30.2031 153.084 30.6557C152.828 30.8862 152.626 31.1692 152.49 31.4853C152.353 31.8014 152.287 32.1432 152.296 32.4872C152.294 32.9026 152.395 33.312 152.589 33.6791C152.784 34.0461 153.066 34.3594 153.411 34.5911C153.756 34.8228 154.152 34.9657 154.566 35.0072C154.979 35.0487 155.396 34.9874 155.78 34.8288C156.164 34.6703 156.503 34.4193 156.767 34.0983C157.03 33.7772 157.211 33.396 157.291 32.9886C157.372 32.5811 157.351 32.16 157.23 31.7626C157.109 31.3652 156.892 31.0039 156.597 30.7108V30.7108ZM156.282 33.9705C155.992 34.2599 155.622 34.4567 155.219 34.5356C154.817 34.6146 154.4 34.5723 154.022 34.4141C153.644 34.2559 153.321 33.9888 153.095 33.6469C152.869 33.305 152.749 32.9035 152.751 32.4935C152.749 32.2239 152.801 31.9567 152.904 31.7076C153.008 31.4585 153.16 31.2326 153.352 31.0434C153.542 30.8461 153.77 30.6892 154.022 30.582C154.275 30.4748 154.546 30.4195 154.82 30.4195C155.094 30.4195 155.365 30.4748 155.618 30.582C155.87 30.6892 156.098 30.8461 156.288 31.0434C156.673 31.4334 156.889 31.9591 156.889 32.5069C156.889 33.0547 156.673 33.5805 156.288 33.9705H156.282Z" fill="#E80028"/>
</g>
<defs>
<clipPath id="clip0">
<rect width="157.334" height="30.5" fill="white" transform="translate(0 23)"/>
</clipPath>
</defs>
</svg>
