<svg width="161" height="76" viewBox="0 0 161 76" fill="none" xmlns="http://www.w3.org/2000/svg">
<g clip-path="url(#clip0)">
<path fill-rule="evenodd" clip-rule="evenodd" d="M158.115 46.6108C157.63 46.6095 157.156 46.7521 156.752 47.0205C156.349 47.2889 156.034 47.6711 155.848 48.1186C155.662 48.5661 155.613 49.0588 155.707 49.5342C155.801 50.0096 156.034 50.4464 156.377 50.7891C156.72 51.1318 157.156 51.365 157.632 51.4592C158.107 51.5535 158.6 51.5044 159.047 51.3183C159.495 51.1322 159.877 50.8175 160.146 50.4139C160.414 50.0104 160.557 49.5362 160.555 49.0515C160.554 48.4047 160.296 47.7849 159.839 47.3275C159.381 46.8701 158.761 46.6124 158.115 46.6108V46.6108ZM158.115 51.2107C157.689 51.2121 157.272 51.0872 156.918 50.8518C156.563 50.6164 156.286 50.2812 156.122 49.8884C155.958 49.4956 155.914 49.063 155.995 48.6452C156.077 48.2275 156.281 47.8433 156.581 47.5413C156.881 47.2394 157.264 47.0332 157.681 46.9488C158.098 46.8644 158.531 46.9057 158.925 47.0673C159.319 47.229 159.656 47.5037 159.893 47.8569C160.131 48.2101 160.259 48.6259 160.26 49.0515C160.262 49.3344 160.208 49.6149 160.101 49.8768C159.994 50.1387 159.836 50.3768 159.636 50.5775C159.437 50.7782 159.2 50.9374 158.939 51.0461C158.678 51.1548 158.397 51.2107 158.115 51.2107Z" fill="black"/>
<path fill-rule="evenodd" clip-rule="evenodd" d="M159.371 48.4106C159.376 48.2942 159.35 48.1787 159.296 48.0753C159.242 47.972 159.163 47.8844 159.065 47.8211C158.859 47.7164 158.629 47.6699 158.398 47.6863H157.207V50.4222H157.54V49.1598H158.154L158.936 50.4222H159.334L158.507 49.1598C158.994 49.147 159.371 48.9487 159.371 48.4106ZM158.052 48.8972H157.537V47.9301H158.318C158.662 47.9301 159.029 47.9816 159.029 48.4038C159.029 48.9616 158.434 48.8972 158.05 48.8972H158.052Z" fill="black"/>
<path fill-rule="evenodd" clip-rule="evenodd" d="M143.769 35.1885L148.773 29.8463C149.005 29.5961 149.157 29.2818 149.207 28.9443C149.207 28.5522 148.87 28.3951 147.809 28.3951H146.547V25.0225H160.211V28.3951H158.416C156.342 28.3951 155.955 28.7084 153.064 32.3556L145.148 40.9032V46.1192C145.148 47.4537 145.823 47.9214 147.752 47.9214H150.74V51.1756H131.603V47.9214H134.592C136.519 47.9214 137.195 47.452 137.195 46.1192V40.9032L127.875 30.5903C126.331 28.7882 126.547 28.3951 122.258 28.3951V25.0225H139.567V28.3951H138.333C137.08 28.3951 136.549 28.6303 136.549 29.1014C136.549 29.4936 136.934 29.8068 137.176 30.1201L141.897 35.2597C142.007 35.4076 142.153 35.5264 142.32 35.6059C142.486 35.6855 142.67 35.7233 142.855 35.7163C143.04 35.7093 143.22 35.6577 143.38 35.5657C143.541 35.4738 143.676 35.3444 143.776 35.1885H143.769Z" fill="black"/>
<path fill-rule="evenodd" clip-rule="evenodd" d="M27.6371 25.0236H31.8114V34.4344H27.9555C27.6122 32.5533 26.4374 31.8213 25.3629 30.8343C23.426 29.0545 19.2312 27.5732 15.7032 27.5732C11.1505 27.5732 7.30673 28.9849 7.30673 31.0626C7.30673 36.8279 33.3484 32.24 33.3484 43.1416C33.3484 48.827 27.7701 52.0032 17.7526 52.0032C13.6689 51.9276 9.64584 51.0011 5.94049 49.2827C4.96988 48.7206 4.55796 49.8122 4.37602 51.1802H0.0954163V41.4544H3.96668C4.82057 43.9251 5.99801 44.4331 7.07933 45.4149C8.95703 47.1398 13.4299 48.3962 17.5252 48.355C23.7041 48.2941 25.8298 46.9433 25.8298 44.9824C25.8298 43.0214 23.7281 42.552 16.9562 41.493L11.2063 40.549C4.71845 39.5681 -0.00585938 38.1169 -0.00585938 32.9412C-0.00585938 27.5689 5.97054 24.1963 15.4192 24.1963C19.4011 24.1963 22.7335 24.7284 25.9302 26.5366C26.8167 27.1107 27.6466 27.1802 27.6371 25.0201V25.0236Z" fill="black"/>
<path fill-rule="evenodd" clip-rule="evenodd" d="M109.124 40.7774L109.209 30.3178C109.209 28.9447 108.496 28.4753 106.456 28.4753H104.059V25.2202H119.309V28.4753H117.323C115.281 28.4753 114.567 28.9456 114.567 30.3178V51.3743L108.597 51.3288L89.2686 33.0237V46.317C89.2686 47.6506 89.9835 48.1595 92.0226 48.1595H94.6744V51.3751H78.834V48.1595H81.4583C83.4982 48.1595 84.2122 47.6506 84.2122 46.317V30.3178C84.2122 28.9447 83.4982 28.4753 81.4583 28.4753H78.834V25.2202H92.528L109.124 40.7774Z" fill="black"/>
<path fill-rule="evenodd" clip-rule="evenodd" d="M58.0388 24.0044C45.8852 24.0044 38.2773 29.3766 38.2773 38.0031C38.2773 46.4734 45.7796 51.8062 57.6723 51.8062C70.2997 51.8062 77.6448 46.5523 77.6448 37.5723C77.6448 29.4951 69.7187 24.0044 58.0422 24.0044H58.0388ZM57.7624 48.3949C51.0351 48.3949 47.1681 44.5124 47.1681 37.8074C47.1681 31.2586 51.2016 27.3762 58.0988 27.3762C64.7129 27.3762 68.5807 31.3376 68.5807 38.0821C68.5807 44.6695 64.6579 48.3949 57.7624 48.3949V48.3949Z" fill="black"/>
</g>
<defs>
<clipPath id="clip0">
<rect width="160.554" height="28" fill="white" transform="translate(0 24)"/>
</clipPath>
</defs>
</svg>
