<svg width="79" height="76" viewBox="0 0 79 76" fill="none" xmlns="http://www.w3.org/2000/svg">
<g clip-path="url(#clip0)">
<path d="M24.7676 70.001C54.4859 70.001 70.7364 45.381 70.7364 24.0323C70.7364 23.3322 70.7224 22.6356 70.6903 21.9435C73.8521 19.6554 76.5814 16.8226 78.7505 13.5779C75.8022 14.8848 72.6746 15.7421 69.4721 16.1213C72.8454 14.1022 75.3701 10.9261 76.5762 7.18426C73.4048 9.06608 69.9351 10.3924 66.3171 11.1059C63.8815 8.51484 60.6597 6.79891 57.1505 6.2237C53.6413 5.6485 50.0403 6.24612 46.905 7.92404C43.7697 9.60196 41.2749 12.2666 39.8069 15.5055C38.3388 18.7444 37.9794 22.3769 38.7842 25.8407C32.36 25.5192 26.0752 23.8503 20.3379 20.9421C14.6006 18.0339 9.53912 13.9515 5.48209 8.9601C3.41576 12.5171 2.78281 16.7279 3.71214 20.7352C4.64146 24.7424 7.06317 28.2449 10.4842 30.5293C7.91869 30.4511 5.40946 29.7582 3.1674 28.5088C3.16367 28.5761 3.16367 28.6442 3.16367 28.7152C3.16497 32.4452 4.45627 36.06 6.8186 38.9465C9.18093 41.8331 12.4689 43.8138 16.125 44.5528C13.7457 45.2017 11.2494 45.2964 8.8278 44.8296C9.85985 48.0401 11.8696 50.8478 14.5759 52.8598C17.2822 54.8719 20.5498 55.9877 23.9215 56.0513C18.1979 60.5427 11.1299 62.9785 3.85435 62.9669C2.56631 62.9679 1.27931 62.8932 0 62.7435C7.38751 67.4899 15.9851 70.0095 24.766 70.0014" fill="#1DA1F2"/>
</g>
<defs>
<clipPath id="clip0">
<rect width="78.7489" height="64" fill="white" transform="translate(0 6)"/>
</clipPath>
</defs>
</svg>
