<svg width="215" height="80" viewBox="0 0 215 80" fill="none" xmlns="http://www.w3.org/2000/svg">
<g clip-path="url(#clip0)">
<path d="M76.0249 43.4946L74.7411 47.1318H74.6342C74.4202 46.3116 74.028 45.0636 73.3861 43.5659L66.5039 26.2713H59.7644V53.8357H64.2218V36.8264C64.2218 35.7566 64.2218 34.5442 64.1861 33.0465C64.1504 32.2977 64.0791 31.7271 64.0435 31.2992H64.1504C64.3644 32.369 64.614 33.1535 64.7923 33.6527L73.0652 53.7644H76.2032L84.4047 33.4744C84.583 33.0109 84.7613 32.0837 84.9396 31.2992H85.0466C84.9396 33.3318 84.8683 35.1504 84.8326 36.2558V53.7287H89.5753V26.2H83.0853L76.0249 43.4946V43.4946ZM94.0683 33.9737H98.7039V53.7287H94.0683V33.9737ZM96.4218 25.6295C95.6373 25.6295 94.9954 25.9147 94.4605 26.414C93.9256 26.9132 93.6404 27.555 93.6404 28.3395C93.6404 29.0884 93.9256 29.7302 94.4605 30.2295C94.9954 30.7287 95.6373 30.9783 96.4218 30.9783C97.2063 30.9783 97.8838 30.693 98.383 30.2295C98.9179 29.7302 99.2032 29.0884 99.2032 28.3395C99.2032 27.5907 98.9179 26.9488 98.383 26.414C97.9194 25.9147 97.2419 25.6295 96.4218 25.6295V25.6295ZM115.143 33.7954C114.287 33.6171 113.395 33.5101 112.54 33.5101C110.436 33.5101 108.51 33.9737 106.905 34.9008C105.301 35.8279 104.017 37.1116 103.197 38.7163C102.341 40.3566 101.913 42.2465 101.913 44.4217C101.913 46.3116 102.341 47.9876 103.161 49.5209C103.981 51.0186 105.123 52.231 106.656 53.0512C108.118 53.8713 109.83 54.2992 111.755 54.2992C113.966 54.2992 115.856 53.8357 117.354 52.9799L117.389 52.9442V48.6651L117.211 48.8078C116.533 49.307 115.749 49.7349 114.964 49.9845C114.144 50.2698 113.395 50.4124 112.754 50.4124C110.899 50.4124 109.437 49.8775 108.403 48.7008C107.333 47.5597 106.799 45.9907 106.799 44.0295C106.799 41.9969 107.333 40.3923 108.439 39.2155C109.544 38.0388 111.006 37.4326 112.789 37.4326C114.287 37.4326 115.82 37.9318 117.211 38.9302L117.389 39.0729V34.5442L117.354 34.5085C116.747 34.2589 116.07 33.9737 115.143 33.7954V33.7954ZM130.44 33.6527C129.299 33.6527 128.23 34.0093 127.302 34.7581C126.518 35.4 125.983 36.3271 125.519 37.4326H125.484V33.9737H120.848V53.7287H125.484V43.6372C125.484 41.9256 125.84 40.4992 126.625 39.4651C127.409 38.3954 128.408 37.8605 129.62 37.8605C130.048 37.8605 130.476 37.9675 131.011 38.0388C131.51 38.1814 131.867 38.324 132.116 38.5023L132.295 38.645V34.0093L132.188 33.9737C131.867 33.7597 131.225 33.6527 130.44 33.6527V33.6527ZM143.064 33.5457C139.819 33.5457 137.216 34.5085 135.397 36.3985C133.543 38.2884 132.651 40.8915 132.651 44.1721C132.651 47.2388 133.578 49.7349 135.361 51.5535C137.144 53.3364 139.569 54.2636 142.6 54.2636C145.774 54.2636 148.305 53.3008 150.124 51.3752C151.978 49.4496 152.87 46.8822 152.87 43.7085C152.87 40.5706 152.014 38.0744 150.267 36.2558C148.591 34.4372 146.13 33.5457 143.064 33.5457V33.5457ZM146.772 48.7364C145.916 49.8419 144.561 50.3768 142.885 50.3768C141.209 50.3768 139.854 49.8419 138.892 48.6651C137.929 47.5597 137.465 45.955 137.465 43.9225C137.465 41.8186 137.964 40.214 138.892 39.0729C139.854 37.9318 141.174 37.3612 142.85 37.3612C144.49 37.3612 145.774 37.8961 146.701 39.0016C147.628 40.107 148.127 41.7116 148.127 43.8155C148.056 45.955 147.664 47.631 146.772 48.7364V48.7364ZM163.211 42.1752C161.749 41.569 160.822 41.1054 160.394 40.7132C160.037 40.3566 159.859 39.8574 159.859 39.2155C159.859 38.6806 160.073 38.1457 160.608 37.7892C161.143 37.4326 161.749 37.2543 162.64 37.2543C163.425 37.2543 164.245 37.3969 165.03 37.6109C165.814 37.8248 166.527 38.1457 167.098 38.5737L167.276 38.7163V34.3659L167.169 34.3302C166.634 34.1163 165.921 33.9023 165.065 33.724C164.209 33.5814 163.425 33.5101 162.783 33.5101C160.572 33.5101 158.754 34.045 157.327 35.2217C155.901 36.3271 155.223 37.8248 155.223 39.5721C155.223 40.4992 155.366 41.3194 155.687 41.9969C156.008 42.6744 156.471 43.3163 157.113 43.8512C157.755 44.3504 158.682 44.9209 159.966 45.4558C161.036 45.9194 161.856 46.276 162.355 46.5613C162.854 46.8465 163.175 47.1675 163.425 47.4171C163.603 47.7023 163.71 48.0589 163.71 48.5225C163.71 49.8419 162.712 50.4837 160.679 50.4837C159.895 50.4837 159.074 50.3411 158.112 50.0202C157.149 49.6992 156.257 49.2357 155.509 48.7008L155.33 48.5581V53.0868L155.437 53.1225C156.115 53.4434 156.935 53.6574 157.933 53.907C158.932 54.0853 159.823 54.2279 160.608 54.2279C162.997 54.2279 164.958 53.693 166.349 52.5163C167.775 51.3752 168.524 49.9132 168.524 48.0233C168.524 46.7039 168.167 45.5271 167.383 44.6357C166.349 43.7799 165.065 42.8884 163.211 42.1752V42.1752ZM180.755 33.5457C177.51 33.5457 174.907 34.5085 173.088 36.3985C171.27 38.2884 170.343 40.8915 170.343 44.1721C170.343 47.2388 171.27 49.7349 173.053 51.5535C174.836 53.3364 177.261 54.2636 180.292 54.2636C183.465 54.2636 185.997 53.3008 187.816 51.3752C189.67 49.4496 190.561 46.8822 190.561 43.7085C190.561 40.5706 189.705 38.0744 187.958 36.2558C186.282 34.4372 183.822 33.5457 180.755 33.5457V33.5457ZM184.428 48.7364C183.572 49.8419 182.217 50.3768 180.541 50.3768C178.83 50.3768 177.51 49.8419 176.547 48.6651C175.585 47.5597 175.121 45.955 175.121 43.9225C175.121 41.8186 175.62 40.214 176.547 39.0729C177.51 37.9318 178.83 37.3612 180.505 37.3612C182.11 37.3612 183.43 37.8961 184.357 39.0016C185.284 40.107 185.783 41.7116 185.783 43.8155C185.783 45.955 185.319 47.631 184.428 48.7364V48.7364ZM215.344 37.7892V33.9737H210.673V28.1256L210.53 28.1612L206.109 29.4806L206.002 29.5163V33.9737H199.012V31.4775C199.012 30.3364 199.298 29.445 199.797 28.8744C200.296 28.3039 201.045 28.0186 201.972 28.0186C202.614 28.0186 203.292 28.1612 204.04 28.4822L204.219 28.5892V24.5597L204.112 24.524C203.47 24.3101 202.614 24.1674 201.509 24.1674C200.118 24.1674 198.905 24.4884 197.8 25.0233C196.695 25.6295 195.874 26.4496 195.268 27.555C194.662 28.6248 194.341 29.8372 194.341 31.2279V33.9737H191.096V37.7535H194.341V53.7287H199.012V37.7892H206.002V47.9519C206.002 52.124 207.963 54.2279 211.885 54.2279C212.527 54.2279 213.205 54.1209 213.847 54.014C214.524 53.8713 215.023 53.693 215.309 53.5504L215.344 53.5147V49.6992L215.166 49.8419C214.881 50.0202 214.631 50.1628 214.203 50.2698C213.847 50.3768 213.526 50.4124 213.276 50.4124C212.349 50.4124 211.707 50.1985 211.243 49.6636C210.816 49.1644 210.602 48.3442 210.602 47.1318V37.7892H215.344V37.7892Z" fill="#737373"/>
<path d="M0 17H21.8589V38.8589H0V17Z" fill="#F25022"/>
<path d="M24.1411 17H46V38.8589H24.1411V17Z" fill="#7FBA00"/>
<path d="M0 41.1411H21.8589V63H0V41.1411Z" fill="#00A4EF"/>
<path d="M24.1411 41.1411H46V63H24.1411V41.1411Z" fill="#FFB900"/>
</g>
<defs>
<clipPath id="clip0">
<rect width="215" height="80" fill="white"/>
</clipPath>
</defs>
</svg>
